<svg width="103" height="103" viewBox="0 0 103 103" fill="none" xmlns="http://www.w3.org/2000/svg">
<g id="Logo">
<g id="Logo 8">
<g id="Heavens Hair">
<path id="Vector" d="M82.1268 95.3791C81.6492 95.3791 81.4104 95.0934 81.4104 94.5222C81.4104 93.9416 81.8225 93.2299 82.6466 92.387C82.7121 92.3215 82.7589 92.27 82.787 92.2325L82.8854 92.092C83.0165 91.9141 83.0773 91.8017 83.068 91.7549L83.0258 91.6285C82.9884 91.5161 82.8339 91.4365 82.5623 91.3897C82.2907 91.3335 82.0706 91.3054 81.9021 91.3054C81.0592 92.4947 80.5722 93.1737 80.4411 93.3422C80.31 93.5108 80.2211 93.581 80.1742 93.5529C80.1274 93.5249 80.104 93.4921 80.104 93.4546C80.104 93.4172 80.1321 93.361 80.1883 93.2861C80.694 92.668 81.1295 92.0078 81.4947 91.3054C81.3823 91.2867 81.298 91.2492 81.2418 91.193C81.1856 91.1275 81.181 91.0245 81.2278 90.884C81.2746 90.7342 81.4151 90.5375 81.6492 90.294C81.8927 90.0505 82.1034 89.8866 82.2813 89.8024C82.4593 89.7181 82.5716 89.6666 82.6185 89.6478C82.6653 89.6291 82.7168 89.6198 82.773 89.6198C82.8854 89.6198 82.8479 89.7883 82.6606 90.1254L82.1128 90.9964C82.5342 91.0245 82.8947 91.0385 83.1944 91.0385L83.6861 91.0245C83.8453 91.0245 83.9623 91.0479 84.0373 91.0947C84.1122 91.1322 84.1309 91.2024 84.0934 91.3054C84.0279 91.4833 83.864 91.7221 83.6018 92.0218C83.0399 92.6773 82.6185 93.375 82.3375 94.1148C82.272 94.2928 82.2392 94.4473 82.2392 94.5784C82.2392 94.85 82.3375 94.9858 82.5342 94.9858C82.5997 94.9858 82.7215 94.9342 82.8994 94.8312C83.0867 94.7282 83.3958 94.4847 83.8265 94.1008C84.2573 93.7075 84.6038 93.3235 84.866 92.9489C84.9035 92.9021 84.9456 92.8927 84.9925 92.9208C85.0487 92.9396 85.0767 92.963 85.0767 92.9911C85.0767 93.0098 85.0674 93.0332 85.0487 93.0613C84.9082 93.3141 84.6553 93.6372 84.2901 94.0305C83.9249 94.4239 83.569 94.7423 83.2225 94.9858C82.8854 95.248 82.5201 95.3791 82.1268 95.3791Z" fill="#B08515"/>
<path id="Vector_2" d="M78.4517 91.1367C78.6858 91.1367 78.8263 91.2117 78.8731 91.3615C78.8919 91.4458 78.8778 91.5301 78.831 91.6143C78.7935 91.6893 78.7654 91.7501 78.7467 91.797C78.728 91.8438 78.7139 91.8812 78.7046 91.9093C78.6577 92.003 78.6109 92.0919 78.5641 92.1762C78.0303 93.2438 77.7493 93.9227 77.7213 94.2131C77.7119 94.2973 77.7072 94.405 77.7072 94.5361C77.7072 94.6672 77.7447 94.7749 77.8196 94.8592C77.9507 95.0091 78.138 95.0184 78.3815 94.8873C78.625 94.7562 78.9621 94.494 79.3929 94.1007C79.833 93.7074 80.1889 93.3234 80.4605 92.9488C80.4979 92.902 80.5401 92.8926 80.5869 92.9207C80.6337 92.9395 80.6571 92.9629 80.6571 92.991C80.6571 93.0097 80.6478 93.0331 80.629 93.0612C80.4886 93.314 80.2357 93.6371 79.8705 94.0304C79.2711 94.6766 78.7701 95.0746 78.3674 95.2245C78.1333 95.3087 77.9366 95.3509 77.7774 95.3509C77.4028 95.3509 77.1547 95.1729 77.0329 94.8171C77.0142 94.7515 77.0048 94.6719 77.0048 94.5783C77.0048 94.2505 77.1547 93.7542 77.4544 93.0893C77.4075 93.1923 77.2249 93.4264 76.9065 93.7916C76.8222 93.8853 76.7567 93.8853 76.7098 93.7916C76.7005 93.7729 76.6958 93.7495 76.6958 93.7214C76.6958 93.6839 76.7145 93.6418 76.752 93.595C77.2109 93.0237 77.5714 92.5414 77.8336 92.1481C77.8149 92.1013 77.8243 92.0404 77.8617 91.9655C78.049 91.4411 78.2129 91.1648 78.3534 91.1367C78.3815 91.1367 78.4143 91.1367 78.4517 91.1367ZM79.5615 89.2685L79.4491 89.718C79.4491 89.8023 79.3882 89.938 79.2665 90.1253C79.1447 90.3126 79.0511 90.4063 78.9855 90.4063C78.5828 90.4063 78.3815 90.308 78.3815 90.1113C78.3815 90.0738 78.5828 89.9006 78.9855 89.5916L79.2243 89.4089C79.3742 89.2778 79.4678 89.2123 79.5053 89.2123C79.5427 89.2123 79.5615 89.231 79.5615 89.2685Z" fill="#B08515"/>
<path id="Vector_3" d="M71.3861 95.1824C71.2363 95.1824 71.0724 95.1356 70.8944 95.042C70.7259 94.9577 70.5807 94.8359 70.459 94.6767C70.3372 94.5082 70.2764 94.3302 70.2764 94.1429C70.2764 93.9556 70.3185 93.7777 70.4028 93.6091C70.5901 93.2158 70.8898 92.8366 71.3018 92.4713C71.7232 92.0967 72.1587 91.7783 72.6082 91.5161C73.0577 91.2539 73.4136 91.09 73.6758 91.0245C73.938 90.9589 74.1909 90.9261 74.4344 90.9261C74.6872 90.9261 74.9026 90.9917 75.0805 91.1228C75.2585 91.2445 75.3474 91.3757 75.3474 91.5161C75.3474 91.563 75.3428 91.591 75.3334 91.6004C75.324 91.6098 75.3006 91.6051 75.2632 91.5864C75.1508 91.4084 74.9167 91.3195 74.5608 91.3195C74.2143 91.3195 73.8163 91.4365 73.3668 91.6706C72.9266 91.8954 72.5099 92.181 72.1166 92.5275C71.7888 92.8366 71.4985 93.1877 71.2456 93.5811C71.0021 93.965 70.8804 94.246 70.8804 94.4239C70.8804 94.7704 70.9787 94.9436 71.1754 94.9436C71.3721 94.9436 71.6717 94.7844 72.0744 94.466C72.7393 93.9041 73.1935 93.4921 73.437 93.2299C74.2986 92.3028 74.7621 91.8392 74.8277 91.8392C74.9401 91.8392 75.0759 91.872 75.2351 91.9375C75.3943 92.0031 75.4458 92.0827 75.3896 92.1763C74.912 92.8506 74.631 93.5295 74.5467 94.2132C74.5374 94.2975 74.5327 94.4052 74.5327 94.5363C74.5327 94.6674 74.5702 94.7751 74.6451 94.8593C74.7855 95.0092 74.9775 95.0185 75.221 94.8874C75.4645 94.7563 75.8016 94.4941 76.2324 94.1008C76.6726 93.7075 77.0238 93.3235 77.286 92.9489C77.3234 92.9021 77.3656 92.8927 77.4124 92.9208C77.4592 92.9396 77.4826 92.9583 77.4826 92.977C77.4826 93.1175 77.2579 93.4265 76.8084 93.9041C76.3682 94.3724 76.0311 94.6908 75.797 94.8593C75.3568 95.1871 74.9494 95.351 74.5748 95.351C74.219 95.351 73.9802 95.1731 73.8584 94.8172C73.8303 94.7048 73.8163 94.5784 73.8163 94.4379C73.8163 94.0165 73.9053 93.5717 74.0832 93.1035C74.0457 93.1222 73.8725 93.3095 73.5634 93.6653C73.2544 94.0212 72.8938 94.363 72.4818 94.6908C72.0791 95.0185 71.7139 95.1824 71.3861 95.1824Z" fill="#B08515"/>
<path id="Vector_4" d="M67.86 91.9517L64.3763 91.4882C62.9529 94.719 61.5715 96.5405 60.2324 96.9525C59.9889 97.0368 59.7735 97.0789 59.5862 97.0789C58.8838 97.0789 58.453 96.7839 58.2938 96.194C58.2845 96.1565 58.2798 96.1144 58.2798 96.0675C58.2798 96.0301 58.2892 95.9786 58.3079 95.913C58.3172 95.8568 58.3453 95.8381 58.3922 95.8568C58.439 95.8756 58.4858 95.9645 58.5326 96.1237C58.6169 96.3953 58.7949 96.5685 59.0664 96.6435C59.2725 96.6809 59.4504 96.6997 59.6002 96.6997C59.7594 96.6997 59.8952 96.6809 60.0076 96.6435C61.3749 96.2127 62.6532 94.4708 63.8425 91.4179L63.098 91.3758C62.9669 91.3664 62.8452 91.3617 62.7328 91.3617C61.5434 91.3617 60.813 91.7457 60.5414 92.5136C60.4946 92.6166 60.4712 92.715 60.4712 92.8086C60.4712 92.9022 60.4993 92.9959 60.5554 93.0895C60.6116 93.1832 60.5929 93.2441 60.4993 93.2722C60.415 93.2909 60.3447 93.2581 60.2885 93.1738C60.1855 92.9865 60.134 92.8133 60.134 92.6541C60.134 92.0828 60.237 91.6614 60.4431 91.3898C60.6585 91.1089 60.9066 90.9263 61.1876 90.842C61.5247 90.7484 61.8993 90.7015 62.3114 90.7015L63.1682 90.7858C63.4679 90.8139 63.7535 90.856 64.0251 90.9122C64.2499 90.3129 64.5215 89.5075 64.8399 88.4961C64.3435 88.9363 63.7348 89.1938 63.0137 89.2687C62.9201 89.2781 62.8686 89.2453 62.8592 89.1704C62.8592 89.0955 62.9154 89.0487 63.0278 89.0299C63.4305 88.9925 63.8425 88.7864 64.2639 88.4118C64.6947 88.0373 65.0225 87.5971 65.2472 87.0914C65.266 86.979 65.4205 86.9229 65.7108 86.9229C66.0011 86.9229 66.1416 86.979 66.1322 87.0914C66.076 87.2319 65.8653 87.775 65.5001 88.7209C65.1442 89.6574 64.8352 90.4253 64.573 91.0246C64.8165 91.0714 65.1723 91.151 65.6406 91.2634C66.5958 91.4788 67.3684 91.6193 67.9584 91.6848C68.5015 90.533 68.8387 89.7978 68.9698 89.4794C69.1102 89.1517 69.1805 88.9456 69.1805 88.8614C69.1805 88.7771 69.1664 88.7115 69.1383 88.6647C69.1664 88.4025 69.3678 88.0607 69.7424 87.6393C70.1263 87.2085 70.4869 86.9931 70.824 86.9931C70.9739 86.9931 71.1518 87.0493 71.3578 87.1617C71.5732 87.2647 71.6809 87.4005 71.6809 87.569C71.6809 87.6065 71.6575 87.6112 71.6107 87.5831C71.5638 87.555 71.5311 87.5409 71.5123 87.5409C71.2782 87.5409 71.0066 87.7095 70.6976 88.0466C70.3886 88.3744 70.0842 88.8005 69.7845 89.3249C69.3256 90.1396 68.9183 90.945 68.5624 91.741C69.3678 91.741 69.9063 91.5725 70.1778 91.2353C70.2247 91.151 70.2715 91.1417 70.3183 91.2072C70.3651 91.2634 70.3464 91.3524 70.2621 91.4741C70.1872 91.5865 70.014 91.6989 69.7424 91.8113C69.4708 91.9236 69.04 91.9798 68.45 91.9798C68.0099 93.0193 67.7898 93.834 67.7898 94.424C67.7898 94.8829 67.9209 95.1123 68.1831 95.1123C68.4547 95.1123 68.8527 94.9063 69.3771 94.4943C69.9109 94.0822 70.412 93.5625 70.8802 92.935C70.9083 92.8976 70.9504 92.8929 71.0066 92.921C71.0628 92.9397 71.0769 92.9818 71.0488 93.0474C71.0301 93.1036 70.9598 93.2206 70.8381 93.3986C70.4447 93.9324 69.9625 94.4287 69.3912 94.8876C68.9698 95.2153 68.5109 95.3792 68.0146 95.3792C67.7617 95.3792 67.565 95.3043 67.4246 95.1545C67.2935 95.0046 67.2185 94.8642 67.1998 94.7331C67.1905 94.6019 67.1858 94.4802 67.1858 94.3678C67.1858 94.2555 67.2045 94.0822 67.242 93.8481C67.3356 93.2487 67.5416 92.6166 67.86 91.9517Z" fill="#B08515"/>
<path id="Vector_5" d="M53.0449 95.1683C52.9232 95.3088 52.8951 95.4212 52.9606 95.5054C53.0355 95.5897 53.1152 95.6319 53.1994 95.6319C53.2931 95.6319 53.3867 95.6178 53.4804 95.5897C53.8831 95.468 54.2717 95.2292 54.6463 94.8733C55.0303 94.5081 55.2222 94.1382 55.2222 93.7636C55.2222 93.5576 54.9928 93.3328 54.5339 93.0893C54.3185 92.977 54.1968 92.9114 54.1687 92.8927C53.9158 92.7241 53.7566 92.5555 53.6911 92.387C53.56 92.6117 53.3493 92.9348 53.059 93.3562C52.9934 93.4311 52.9325 93.4499 52.8763 93.4124C52.8202 93.3656 52.8155 93.3047 52.8623 93.2298C53.2463 92.7054 53.4991 92.2652 53.6209 91.9094C53.6864 91.3943 54.061 90.9308 54.7446 90.5187C55.4283 90.1067 56.051 89.9006 56.6129 89.9006C56.9688 89.9006 57.217 89.9662 57.3574 90.0973C57.5073 90.219 57.5822 90.3408 57.5822 90.4625C57.5822 90.5843 57.5447 90.7247 57.4698 90.8839C57.4043 91.0431 57.2638 91.193 57.0484 91.3334C56.9922 91.3709 56.9454 91.3615 56.9079 91.3053C56.8892 91.2492 56.9267 91.1742 57.0203 91.0806C57.1233 90.9776 57.1889 90.8418 57.217 90.6732C57.2451 90.5047 57.1701 90.4016 56.9922 90.3642C56.9641 90.3642 56.936 90.3642 56.9079 90.3642C56.5427 90.3642 56.0838 90.5 55.5313 90.7716C54.9881 91.0431 54.562 91.3943 54.253 91.8251C54.1312 91.9843 54.0704 92.1482 54.0704 92.3167C54.0704 92.4759 54.1827 92.6211 54.4075 92.7522C54.5011 92.8084 54.6604 92.8974 54.8851 93.0191C55.1099 93.1408 55.2691 93.2298 55.3627 93.286C55.4564 93.3422 55.5687 93.4311 55.6999 93.5529C55.831 93.6746 55.9012 93.787 55.9106 93.89C55.9574 94.171 55.8263 94.48 55.5172 94.8171C55.0771 95.3041 54.4216 95.6459 53.5506 95.8426C53.354 95.8894 53.1526 95.9128 52.9466 95.9128C52.7499 95.9128 52.6141 95.8379 52.5392 95.6881C52.5111 95.6506 52.4971 95.5897 52.4971 95.5054C52.4971 95.4305 52.572 95.3041 52.7218 95.1262C52.8623 94.9857 53.0871 94.8499 53.3961 94.7188C53.4242 94.7094 53.4476 94.7141 53.4663 94.7328C53.4851 94.7516 53.4897 94.775 53.4804 94.8031C53.471 94.8312 53.4195 94.864 53.3259 94.9014C53.2416 94.9389 53.1479 95.0278 53.0449 95.1683Z" fill="#B08515"/>
<path id="Vector_6" d="M51.0756 91.0387C51.291 91.0387 51.3987 91.1558 51.3987 91.3899C51.3987 91.6146 51.291 91.9283 51.0756 92.331C50.8602 92.7337 50.701 93.0615 50.598 93.3143C50.4201 93.7451 50.3311 94.0916 50.3311 94.3538C50.3311 94.6067 50.3686 94.7752 50.4435 94.8595C50.584 95.0094 50.7759 95.0187 51.0194 94.8876C51.2629 94.7471 51.6001 94.4849 52.0308 94.101C52.471 93.7077 52.8222 93.3237 53.0844 92.9491C53.1218 92.9023 53.164 92.8929 53.2108 92.921C53.267 92.9397 53.2951 92.9632 53.2951 92.9912C53.2951 93.01 53.2857 93.0334 53.267 93.0615C53.1265 93.3143 52.8737 93.6374 52.5084 94.0307C52.1432 94.4241 51.792 94.7425 51.4549 94.9859C51.1178 95.2201 50.7853 95.3371 50.4575 95.3371C50.1391 95.3278 49.9144 95.2528 49.7833 95.1124C49.6522 94.9813 49.5866 94.8127 49.5866 94.6067C49.5866 94.4006 49.6053 94.204 49.6428 94.0167C49.6803 93.82 49.7505 93.5953 49.8535 93.3424C50.0221 92.9397 50.1672 92.626 50.289 92.4013C50.4201 92.1765 50.4856 92.0314 50.4856 91.9658C50.4856 91.8909 50.4482 91.8534 50.3733 91.8534C50.2234 91.8534 49.9378 92.036 49.5164 92.4013C49.2261 92.6728 48.7953 93.1879 48.224 93.9465C47.6621 94.6956 47.3437 95.0936 47.2688 95.1405C46.9317 95.309 46.721 95.3933 46.6367 95.3933C46.5524 95.3933 46.5103 95.3793 46.5103 95.3512C46.5103 95.3231 46.5196 95.2809 46.5383 95.2247C46.5571 95.1779 46.646 94.9251 46.8052 94.4662C46.9738 94.0073 47.1517 93.5063 47.339 92.9632C47.5357 92.4106 47.6528 92.0782 47.6902 91.9658C47.7371 91.8534 47.7651 91.7598 47.7745 91.6849C47.7932 91.6006 47.812 91.5303 47.8307 91.4742C47.8494 91.418 47.8822 91.3571 47.929 91.2915C47.9852 91.2166 48.0555 91.1792 48.1397 91.1792C48.224 91.1698 48.3317 91.1792 48.4628 91.2073C48.5939 91.226 48.6595 91.2822 48.6595 91.3758C48.6595 91.4414 48.608 91.5865 48.505 91.8113C48.402 92.0267 48.107 92.7805 47.62 94.0729C47.9571 93.6608 48.3832 93.1879 48.8983 92.6541C49.4134 92.111 49.8488 91.6989 50.2047 91.418C50.5606 91.1651 50.8509 91.0387 51.0756 91.0387Z" fill="#B08515"/>
<path id="Vector_7" d="M45.9156 90.9402C46.4213 90.9402 46.6742 91.1837 46.6742 91.6706C46.6742 91.9235 46.604 92.1295 46.4635 92.2887C46.2294 92.6352 45.8501 92.9396 45.3256 93.2018C44.8012 93.4546 44.3564 93.5951 43.9912 93.6232C43.86 93.6326 43.7898 93.5951 43.7804 93.5108C43.7711 93.4734 43.7804 93.4499 43.8085 93.4406C43.846 93.4312 43.8741 93.4265 43.8928 93.4265C44.1082 93.4078 44.3845 93.3048 44.7216 93.1175C45.3491 92.7804 45.8079 92.4339 46.0982 92.078C46.22 91.9094 46.2809 91.7502 46.2809 91.6004C46.2809 91.4412 46.2059 91.3616 46.0561 91.3616C45.9344 91.3616 45.7705 91.4131 45.5645 91.5161C45.1243 91.7221 44.6607 92.0827 44.1738 92.5977C43.6868 93.1034 43.3684 93.5998 43.2186 94.0867C43.1717 94.2366 43.1483 94.3864 43.1483 94.5362C43.1483 94.6767 43.2092 94.8125 43.3309 94.9436C43.4527 95.0747 43.64 95.1403 43.8928 95.1403C44.1738 95.1403 44.4969 95.0654 44.8621 94.9155C45.9203 94.4847 46.7351 93.8339 47.3063 92.963C47.3625 92.8881 47.414 92.874 47.4608 92.9208C47.4983 92.9396 47.517 92.963 47.517 92.9911C47.517 93.0192 47.503 93.0519 47.4749 93.0894C47.1939 93.5576 46.8381 93.9744 46.4073 94.3396C45.5738 95.0513 44.7638 95.4072 43.9771 95.4072C43.3028 95.4072 42.8299 95.2058 42.5583 94.8031C42.4553 94.6439 42.4038 94.452 42.4038 94.2272C42.4038 94.0025 42.4647 93.7356 42.5864 93.4265C42.8205 92.8927 43.3216 92.3449 44.0895 91.783C44.8574 91.2211 45.4661 90.9402 45.9156 90.9402Z" fill="#B08515"/>
<path id="Vector_8" d="M38.9706 91.8956C38.9706 91.446 38.8395 91.2213 38.5773 91.2213C38.5211 91.2213 38.4602 91.2307 38.3947 91.2494C38.3385 91.2588 38.3104 91.2447 38.3104 91.2072C38.3104 91.1698 38.3385 91.123 38.3947 91.0668C38.4509 91.02 38.6428 90.9825 38.9706 90.9544C39.3639 90.9544 39.6074 91.0106 39.7011 91.123C39.8041 91.2353 39.8556 91.3477 39.8556 91.4601C39.8556 91.5725 39.7666 91.8534 39.5887 92.3029C39.4201 92.7431 39.3312 92.9725 39.3218 92.9912C39.0409 93.8341 38.9144 94.3632 38.9425 94.5786C39.7854 93.4454 40.3379 92.7384 40.6001 92.4574C41.1526 91.8487 41.546 91.432 41.7801 91.2072C42.3232 90.7016 42.8008 90.3597 43.2129 90.1818C43.3346 90.135 43.4423 90.1116 43.536 90.1116C43.845 90.1116 44.0557 90.2052 44.1681 90.3925C44.2056 90.4393 44.2243 90.4862 44.2243 90.533C44.2243 90.5704 44.2103 90.6173 44.1822 90.6735C44.1541 90.7296 44.1026 90.7296 44.0276 90.6735C43.9527 90.6079 43.7842 90.5751 43.5219 90.5751C43.0912 90.5751 42.3701 91.0808 41.3587 92.0922C40.7499 92.7197 40.188 93.3752 39.673 94.0588C39.1673 94.7424 38.8957 95.2294 38.8582 95.5197C38.8582 95.5946 38.788 95.6321 38.6475 95.6321C38.5071 95.6321 38.3994 95.5712 38.3244 95.4495C38.2589 95.3371 38.2261 95.2388 38.2261 95.1545C38.2261 95.0796 38.2308 95.014 38.2402 94.9578C38.2495 94.8923 38.3432 94.5458 38.5211 93.9183C38.699 93.2909 38.8114 92.8742 38.8582 92.6681C38.7459 92.8554 38.5913 93.0849 38.3947 93.3565C38.3291 93.4314 38.2729 93.4548 38.2261 93.4267C38.1887 93.3892 38.1699 93.3565 38.1699 93.3284C38.1699 93.3003 38.1793 93.2675 38.198 93.23C38.5913 92.6962 38.8489 92.2514 38.9706 91.8956Z" fill="#B08515"/>
<path id="Vector_9" d="M32.5228 95.1824C32.373 95.1824 32.2091 95.1356 32.0312 95.042C31.8626 94.9577 31.7174 94.8359 31.5957 94.6767C31.474 94.5082 31.4131 94.3302 31.4131 94.1429C31.4131 93.9556 31.4552 93.7777 31.5395 93.6091C31.7268 93.2158 32.0265 92.8366 32.4385 92.4713C32.86 92.0967 33.2954 91.7783 33.7449 91.5161C34.1945 91.2539 34.5503 91.09 34.8125 91.0245C35.0747 90.9589 35.3276 90.9261 35.5711 90.9261C35.8239 90.9261 36.0393 90.9917 36.2173 91.1228C36.3952 91.2445 36.4842 91.3757 36.4842 91.5161C36.4842 91.563 36.4795 91.591 36.4701 91.6004C36.4607 91.6098 36.4373 91.6051 36.3999 91.5864C36.2875 91.4084 36.0534 91.3195 35.6975 91.3195C35.351 91.3195 34.953 91.4365 34.5035 91.6706C34.0633 91.8954 33.6466 92.181 33.2533 92.5275C32.9255 92.8366 32.6352 93.1877 32.3824 93.5811C32.1389 93.965 32.0171 94.246 32.0171 94.4239C32.0171 94.7704 32.1155 94.9436 32.3121 94.9436C32.5088 94.9436 32.8085 94.7844 33.2111 94.466C33.876 93.9041 34.3302 93.4921 34.5737 93.2299C35.4353 92.3028 35.8989 91.8392 35.9644 91.8392C36.0768 91.8392 36.2126 91.872 36.3718 91.9375C36.531 92.0031 36.5825 92.0827 36.5263 92.1763C36.0487 92.8506 35.7677 93.5295 35.6835 94.2132C35.6741 94.2975 35.6694 94.4052 35.6694 94.5363C35.6694 94.6674 35.7069 94.7751 35.7818 94.8593C35.9223 95.0092 36.1142 95.0185 36.3577 94.8874C36.6012 94.7563 36.9384 94.4941 37.3691 94.1008C37.8093 93.7075 38.1605 93.3235 38.4227 92.9489C38.4601 92.9021 38.5023 92.8927 38.5491 92.9208C38.5959 92.9396 38.6193 92.9583 38.6193 92.977C38.6193 93.1175 38.3946 93.4265 37.9451 93.9041C37.5049 94.3724 37.1678 94.6908 36.9337 94.8593C36.4935 95.1871 36.0862 95.351 35.7116 95.351C35.3557 95.351 35.1169 95.1731 34.9951 94.8172C34.9671 94.7048 34.953 94.5784 34.953 94.4379C34.953 94.0165 35.042 93.5717 35.2199 93.1035C35.1824 93.1222 35.0092 93.3095 34.7002 93.6653C34.3911 94.0212 34.0306 94.363 33.6185 94.6908C33.2158 95.0185 32.8506 95.1824 32.5228 95.1824Z" fill="#B08515"/>
<path id="Vector_10" d="M30.5792 90.9402C31.0849 90.9402 31.3378 91.1837 31.3378 91.6706C31.3378 91.9235 31.2675 92.1295 31.1271 92.2887C30.8929 92.6352 30.5137 92.9396 29.9892 93.2018C29.4648 93.4546 29.02 93.5951 28.6547 93.6232C28.5236 93.6326 28.4534 93.5951 28.444 93.5108C28.4347 93.4734 28.444 93.4499 28.4721 93.4406C28.5096 93.4312 28.5377 93.4265 28.5564 93.4265C28.7718 93.4078 29.0481 93.3048 29.3852 93.1175C30.0126 92.7804 30.4715 92.4339 30.7618 92.078C30.8836 91.9094 30.9444 91.7502 30.9444 91.6004C30.9444 91.4412 30.8695 91.3616 30.7197 91.3616C30.5979 91.3616 30.4341 91.4131 30.228 91.5161C29.7879 91.7221 29.3243 92.0827 28.8373 92.5977C28.3504 93.1034 28.032 93.5998 27.8821 94.0867C27.8353 94.2366 27.8119 94.3864 27.8119 94.5362C27.8119 94.6767 27.8728 94.8125 27.9945 94.9436C28.1162 95.0747 28.3035 95.1403 28.5564 95.1403C28.8373 95.1403 29.1604 95.0654 29.5257 94.9155C30.5839 94.4847 31.3986 93.8339 31.9699 92.963C32.0261 92.8881 32.0776 92.874 32.1244 92.9208C32.1619 92.9396 32.1806 92.963 32.1806 92.9911C32.1806 93.0192 32.1666 93.0519 32.1385 93.0894C31.8575 93.5576 31.5016 93.9744 31.0709 94.3396C30.2374 95.0513 29.4273 95.4072 28.6407 95.4072C27.9664 95.4072 27.4935 95.2058 27.2219 94.8031C27.1189 94.6439 27.0674 94.452 27.0674 94.2272C27.0674 94.0025 27.1283 93.7356 27.25 93.4265C27.4841 92.8927 27.9851 92.3449 28.7531 91.783C29.521 91.2211 30.1297 90.9402 30.5792 90.9402Z" fill="#B08515"/>
<path id="Vector_11" d="M24.5109 91.9517L21.0272 91.4882C19.6037 94.719 18.2224 96.5405 16.8832 96.9525C16.6398 97.0368 16.4244 97.0789 16.2371 97.0789C15.5347 97.0789 15.1039 96.7839 14.9447 96.194C14.9353 96.1565 14.9307 96.1144 14.9307 96.0675C14.9307 96.0301 14.94 95.9786 14.9588 95.913C14.9681 95.8568 14.9962 95.8381 15.043 95.8568C15.0899 95.8756 15.1367 95.9645 15.1835 96.1237C15.2678 96.3953 15.4457 96.5685 15.7173 96.6435C15.9233 96.6809 16.1013 96.6997 16.2511 96.6997C16.4103 96.6997 16.5461 96.6809 16.6585 96.6435C18.0258 96.2127 19.3041 94.4708 20.4934 91.4179L19.7489 91.3758C19.6178 91.3664 19.496 91.3617 19.3837 91.3617C18.1943 91.3617 17.4639 91.7457 17.1923 92.5136C17.1455 92.6166 17.122 92.715 17.122 92.8086C17.122 92.9022 17.1501 92.9959 17.2063 93.0895C17.2625 93.1832 17.2438 93.2441 17.1501 93.2722C17.0659 93.2909 16.9956 93.2581 16.9394 93.1738C16.8364 92.9865 16.7849 92.8133 16.7849 92.6541C16.7849 92.0828 16.8879 91.6614 17.0939 91.3898C17.3093 91.1089 17.5575 90.9263 17.8385 90.842C18.1756 90.7484 18.5502 90.7015 18.9622 90.7015L19.8191 90.7858C20.1188 90.8139 20.4044 90.856 20.676 90.9122C20.9008 90.3129 21.1723 89.5075 21.4908 88.4961C20.9944 88.9363 20.3857 89.1938 19.6646 89.2687C19.571 89.2781 19.5194 89.2453 19.5101 89.1704C19.5101 89.0955 19.5663 89.0487 19.6787 89.0299C20.0813 88.9925 20.4934 88.7864 20.9148 88.4118C21.3456 88.0373 21.6734 87.5971 21.8981 87.0914C21.9169 86.979 22.0714 86.9229 22.3617 86.9229C22.652 86.9229 22.7925 86.979 22.7831 87.0914C22.7269 87.2319 22.5162 87.775 22.151 88.7209C21.7951 89.6574 21.4861 90.4253 21.2239 91.0246C21.4673 91.0714 21.8232 91.151 22.2914 91.2634C23.2467 91.4788 24.0193 91.6193 24.6093 91.6848C25.1524 90.533 25.4895 89.7978 25.6207 89.4794C25.7611 89.1517 25.8314 88.9456 25.8314 88.8614C25.8314 88.7771 25.8173 88.7115 25.7892 88.6647C25.8173 88.4025 26.0187 88.0607 26.3933 87.6393C26.7772 87.2085 27.1378 86.9931 27.4749 86.9931C27.6247 86.9931 27.8027 87.0493 28.0087 87.1617C28.2241 87.2647 28.3318 87.4005 28.3318 87.569C28.3318 87.6065 28.3084 87.6112 28.2615 87.5831C28.2147 87.555 28.1819 87.5409 28.1632 87.5409C27.9291 87.5409 27.6575 87.7095 27.3485 88.0466C27.0394 88.3744 26.7351 88.8005 26.4354 89.3249C25.9765 90.1396 25.5692 90.945 25.2133 91.741C26.0187 91.741 26.5571 91.5725 26.8287 91.2353C26.8756 91.151 26.9224 91.1417 26.9692 91.2072C27.016 91.2634 26.9973 91.3524 26.913 91.4741C26.8381 91.5865 26.6648 91.6989 26.3933 91.8113C26.1217 91.9236 25.6909 91.9798 25.1009 91.9798C24.6608 93.0193 24.4407 93.834 24.4407 94.424C24.4407 94.8829 24.5718 95.1123 24.834 95.1123C25.1056 95.1123 25.5036 94.9063 26.028 94.4943C26.5618 94.0822 27.0628 93.5625 27.5311 92.935C27.5592 92.8976 27.6013 92.8929 27.6575 92.921C27.7137 92.9397 27.7278 92.9818 27.6997 93.0474C27.6809 93.1036 27.6107 93.2206 27.4889 93.3986C27.0956 93.9324 26.6133 94.4287 26.0421 94.8876C25.6207 95.2153 25.1618 95.3792 24.6654 95.3792C24.4126 95.3792 24.2159 95.3043 24.0755 95.1545C23.9443 95.0046 23.8694 94.8642 23.8507 94.7331C23.8413 94.6019 23.8367 94.4802 23.8367 94.3678C23.8367 94.2555 23.8554 94.0822 23.8928 93.8481C23.9865 93.2487 24.1925 92.6166 24.5109 91.9517Z" fill="#B08515"/>
</g>
<g id="Icon">
<path id="Vector_12" d="M20.8925 22.0815C21.0363 21.8189 21.0448 21.8105 21.51 21.9968C21.5354 21.7088 21.5862 21.4887 22.0007 21.5564C22.2122 21.5903 22.5252 21.404 22.7028 21.2261C22.8382 21.0991 22.8382 20.8281 22.8974 20.6164C22.762 20.5825 22.6351 20.5571 22.4998 20.5232C22.356 20.4893 22.2037 20.4809 22.0853 20.4131C22.043 20.3877 22.043 20.1675 22.0937 20.1337C22.2206 20.049 22.3898 19.9728 22.5336 19.9728C22.6774 19.9728 22.8128 20.0913 22.9651 20.1591C23.2019 20.0574 23.2611 19.905 23.0666 19.6679C23.0158 19.6001 22.9989 19.4138 23.0496 19.363C23.2611 19.1259 23.2696 18.8718 23.1765 18.5924C23.0919 18.3383 23.2104 18.1774 23.4472 18.2282C23.8787 18.3214 23.9971 18.1774 23.9041 17.7709C23.8871 17.6947 23.9041 17.6015 23.9125 17.5084C23.811 17.466 23.7095 17.4322 23.6249 17.3729C23.4219 17.2289 23.4134 16.9579 23.6249 16.8393C23.7772 16.7547 23.9633 16.7123 24.1325 16.7038C24.2086 16.7038 24.3609 16.8732 24.3524 16.941C24.2763 17.2797 24.5131 17.4067 24.7331 17.4491C25.173 17.5338 25.6213 17.5592 26.0697 17.5846C26.1543 17.5846 26.3065 17.5253 26.3319 17.4576C26.3573 17.3898 26.2812 17.2628 26.2219 17.1781C26.1035 16.9918 25.9766 16.8055 25.8244 16.6446C25.7567 16.5768 25.6213 16.526 25.5198 16.5345C25.3422 16.5514 25.173 16.6361 25.0038 16.67C24.6739 16.7462 24.1748 16.5006 24.0648 16.2127C23.9294 15.8485 24.1832 15.3743 24.6146 15.1964C24.9784 15.044 25.3675 15.1964 25.5706 15.5352C25.9343 16.1619 26.5519 16.4413 27.1609 16.7208C27.1863 16.6954 27.2032 16.67 27.2286 16.6446C27.1356 16.4583 26.9664 16.2719 26.9664 16.0772C26.9664 15.9925 27.2794 15.8993 27.4993 15.7808C27.4993 15.8146 27.4993 15.7638 27.4993 15.7045C27.4993 15.6199 27.5247 15.5352 27.5416 15.4505C27.6431 15.4674 27.7616 15.459 27.8377 15.5182C27.9731 15.6114 28.083 15.7554 28.2099 15.857C28.3114 15.9332 28.4383 15.984 28.5737 16.0602C28.4552 15.5521 28.3453 15.1033 28.2691 14.646C28.2438 14.4935 28.303 14.3242 28.3284 14.1717C28.4891 14.1971 28.6498 14.2056 28.8021 14.2649C29.1828 14.4088 29.5127 14.7137 29.961 14.6375C30.071 14.6206 30.2233 14.5528 30.2571 14.4681C30.4009 14.1294 30.7055 14.1378 30.9846 14.1124C31.0354 14.1124 31.1538 14.2987 31.1538 14.4004C31.1538 14.5105 31.0523 14.629 31.0608 14.7815C31.2723 14.4935 31.4753 14.1887 31.7121 13.9177C32.0844 13.4773 32.0928 13.4858 32.5243 13.816C32.7611 13.7313 32.9219 13.6297 32.8034 13.3248C32.7527 13.1893 32.795 13.02 32.795 12.8337C32.7357 12.8337 32.6596 12.8675 32.6089 12.8337C32.4989 12.7829 32.372 12.7151 32.3297 12.6219C32.3043 12.5627 32.4058 12.3848 32.482 12.351C32.7104 12.2493 32.6934 12.0969 32.6511 11.9106C32.6089 11.6989 32.575 11.4956 32.5243 11.2246C32.5243 11.2246 32.4143 11.2246 32.3381 11.267C32.0505 11.4363 31.9405 11.25 31.8644 11.0383C31.7714 10.7927 31.8983 10.6233 32.1351 10.5979C32.3804 10.5725 32.6342 10.5979 32.8796 10.6233C33.1333 10.6572 33.0572 10.8689 33.0403 11.0214C33.0234 11.1992 32.8796 11.394 33.1249 11.521C33.1756 11.5464 33.2687 11.5464 33.3194 11.521C33.514 11.4025 33.5309 11.2246 33.4548 11.0214C33.3871 10.8351 33.4802 10.708 33.6747 10.6996C33.9201 10.6996 33.9708 10.5641 33.9539 10.3439C33.937 9.94585 34.563 9.21754 34.9521 9.23448C35.1467 9.24295 35.3497 9.41232 35.5189 9.54782C35.5443 9.56476 35.4174 9.78494 35.3582 9.91197C35.3328 9.97125 35.3074 10.039 35.2482 10.166C35.4343 10.1491 35.5697 10.1152 35.6966 10.1322C35.8573 10.1576 36.018 10.2338 36.1787 10.2846C36.128 10.3777 36.1111 10.5217 36.0349 10.5641C35.8742 10.6572 35.6712 10.8181 35.502 10.5895C35.3582 10.3947 35.2228 10.4286 35.0959 10.5895C34.9606 10.7588 35.0706 10.8351 35.2059 10.9536C35.3243 11.0552 35.3666 11.2754 35.3751 11.4363C35.3751 11.5126 35.2144 11.5972 35.1213 11.6819C35.0959 11.6989 35.0367 11.6819 35.0198 11.7073C34.7491 12.0037 34.453 12.1223 34.0893 11.8428C34.0639 11.8174 33.937 11.8852 33.8862 11.9445C33.7763 12.063 33.6917 12.207 33.5901 12.3425C33.6155 12.3764 33.6324 12.4272 33.6494 12.4272C33.9708 12.4695 34.3092 12.5796 34.6137 12.5203C34.9267 12.4695 35.1805 12.2493 35.392 11.9445C35.6796 11.538 36.0603 11.1738 36.4579 10.8774C36.5848 10.7758 36.9063 10.9367 37.1431 10.979C37.1685 10.979 37.177 11.0637 37.2023 11.0637C37.3715 11.0891 37.6169 11.1823 37.7099 11.1061C37.896 10.9451 37.7184 10.7927 37.5746 10.6742C37.27 10.4455 37.2108 10.2084 37.3969 9.92044C37.4223 9.8781 37.49 9.85269 37.4984 9.83575C37.896 10.1576 38.2767 10.4709 38.6658 10.7588C38.7166 10.7927 38.8519 10.7165 38.9958 10.6826C38.6912 10.2931 38.945 10.2422 39.1988 10.039C39.5541 9.75107 39.9094 9.36151 39.8925 8.81104C39.8502 8.78564 39.8163 8.76023 39.7825 8.76023C39.5964 8.72636 39.3172 8.74329 39.3933 8.4723C39.4441 8.26905 39.6387 8.07427 39.8163 7.95571C39.9601 7.85408 40.1462 7.94724 40.1801 8.16742C40.197 8.23517 40.2055 8.31139 40.2224 8.37914C40.3154 8.79411 40.4677 8.86186 40.8145 8.6332C40.8907 8.58239 40.9753 8.54005 41.0852 8.46383C41.0937 8.56545 41.1022 8.6332 41.1022 8.69248C41.1106 8.77717 41.1275 8.87032 41.136 8.95501C41.2121 8.94654 41.3136 8.95501 41.3644 8.91267C41.5843 8.71789 41.8043 8.69248 42.1173 8.9296C42.1004 8.69248 42.1173 8.53158 42.0835 8.37914C42.0327 8.10814 42.1342 7.98958 42.3965 7.99805C42.5826 7.99805 42.7771 7.99805 42.9886 7.99805C43.0394 8.07427 43.1155 8.18436 43.2001 8.31139C43.3101 8.25211 43.4116 8.19283 43.5046 8.13355L43.4793 8.2267C43.8261 8.3368 44.1729 8.44689 44.6044 8.58239C44.6636 8.66708 44.2745 8.94654 44.6382 9.0651C44.7228 9.09051 44.9258 9.02276 44.9343 8.98042C44.9512 8.77717 44.9258 8.57392 44.9005 8.29445C45.095 8.24364 45.3826 8.0658 45.721 8.26058C45.7802 8.29445 45.8564 8.34527 45.9156 8.32833C46.3132 8.24364 46.7192 8.17589 47.1084 8.04886C47.3875 7.95571 47.616 7.84561 47.8105 8.18436C47.8528 8.25211 48.0305 8.26905 48.1489 8.26905C48.242 8.26905 48.3265 8.2013 48.4196 8.17589C48.8426 8.05733 49.0033 8.14202 49.1217 8.58239C49.5701 8.54005 49.9592 8.40455 50.2299 8.01499C49.8323 7.78633 49.3924 7.64237 49.1725 7.0919C49.1302 7.0665 48.9948 7.00722 48.8426 6.931C48.9356 6.66847 49.1133 6.55838 49.3248 6.62612C49.7224 6.74469 49.8577 7.0919 49.8915 7.48993C50.0184 7.51534 50.1453 7.57462 50.2468 7.54921C50.3653 7.51534 50.5345 7.43912 50.5768 7.33749C50.6698 7.0919 50.3061 6.62612 50.0354 6.56684C49.9338 6.54144 49.8408 6.43135 49.7477 6.35513C49.8746 6.29585 50.0015 6.21116 50.1369 6.19422C50.3061 6.16882 50.4837 6.17729 50.6529 6.21963C50.8221 6.26197 51.0674 6.32972 51.1266 6.45675C51.2197 6.66847 51.262 6.9564 51.1858 7.15965C50.9913 7.65083 51.0167 7.82021 51.5242 8.15049C51.7273 7.83715 51.9218 7.5238 52.1418 7.18506C52.514 7.60849 52.8354 7.08343 53.2161 7.12578C53.4614 7.15118 53.7068 7.08343 53.9183 7.27821C53.9775 7.32903 54.0705 7.35443 54.1467 7.3629C54.7219 7.40524 54.7557 7.43065 54.815 7.99805C54.815 8.03193 54.8403 8.0658 54.8573 8.09121C55.128 8.02346 55.221 7.67624 55.0349 7.48146C54.9926 7.43912 54.908 7.42218 54.8911 7.37984C54.8234 7.2274 54.7811 7.07496 54.7304 6.91406C54.8826 6.91406 55.0687 6.85478 55.1787 6.91406C55.8555 7.32902 55.9485 7.08343 55.4917 7.9303C55.737 8.10814 55.9824 8.26058 56.3038 8.17589C56.3461 8.16742 56.4053 8.15896 56.4476 8.17589C56.7522 8.3368 57.0144 8.37067 57.1329 8.01499C57.4374 8.12508 57.6996 8.20977 57.9873 8.31139C57.928 8.39608 57.8688 8.4723 57.8096 8.54851C57.8181 8.58239 57.835 8.6078 57.8435 8.64167C57.9957 8.57392 58.148 8.48923 58.3172 8.45536C58.5033 8.41302 58.6894 8.42995 58.8924 8.42148C58.7909 8.20977 58.7063 8.03192 58.6217 7.85408C58.8078 7.7948 58.9516 7.72705 59.0955 7.70165C59.2054 7.67624 59.3915 7.6593 59.4169 7.71012C59.4761 7.7948 59.4423 7.94724 59.4338 8.0658C59.4338 8.10814 59.4085 8.15049 59.4 8.19283L59.4846 8.27752C59.5946 8.16742 59.7045 8.0658 59.8061 7.97264C60.0006 7.97264 60.1867 7.97264 60.3813 7.97264C60.6266 7.97264 60.7366 8.07427 60.6943 8.32833C60.6689 8.48923 60.6689 8.65014 60.6605 8.71789C61.0242 8.7687 61.3288 8.81951 61.6841 8.87032C61.6841 8.7687 61.6756 8.62473 61.6587 8.40455C61.8109 8.50617 61.9125 8.56545 62.014 8.6332C62.2847 8.80257 62.4285 8.74329 62.5215 8.44689C62.5385 8.40455 62.5385 8.35373 62.5554 8.30292C62.6061 8.12508 62.5808 7.84561 62.8515 7.9049C63.046 7.94724 63.2406 8.11661 63.359 8.28599C63.4775 8.46383 63.4182 8.65861 63.1475 8.69248C63.063 8.70095 62.9868 8.72636 62.8768 8.75176C62.953 9.0397 62.9361 9.3107 63.1983 9.54782C63.4267 9.75107 63.5198 10.0898 63.8835 10.1576C63.9004 10.1576 63.8835 10.3608 63.8835 10.4624C63.8835 10.5471 63.8835 10.6318 63.8835 10.7165C63.9766 10.7165 64.095 10.7419 64.1542 10.6996C64.5264 10.4116 64.8817 10.1152 65.2539 9.80188C65.5585 9.97125 65.5923 10.3354 65.3047 10.5725C65.1863 10.6657 65.1017 10.8097 65.0171 10.9451C65.0002 10.9706 65.1271 11.123 65.1524 11.1145C65.3132 11.0722 65.4654 11.0044 65.6177 10.9282C65.6685 10.9028 65.7108 10.8266 65.7531 10.8266C66.2268 10.8859 66.3368 10.437 66.6075 10.2253C66.7344 10.1322 66.9205 10.0898 67.0812 10.0644C67.1996 10.0475 67.3265 10.0898 67.5126 10.1152C67.4703 9.97972 67.445 9.91197 67.4196 9.83575C67.3688 9.70872 67.2504 9.48007 67.2588 9.4716C67.4619 9.34457 67.6903 9.16673 67.9018 9.1752C68.2994 9.19213 68.8069 9.9035 68.8408 10.3015C68.8408 10.4116 68.9846 10.581 69.0776 10.5979C69.3399 10.6487 69.3822 10.7673 69.323 11.0044C69.2976 11.0976 69.2976 11.2331 69.3483 11.3008C69.4076 11.3855 69.5345 11.4109 69.6275 11.4617C69.6783 11.3432 69.7629 11.2331 69.7713 11.1145C69.7882 10.9197 69.5767 10.6911 69.8559 10.5471C70.1181 10.4116 70.7526 10.437 70.8457 10.6233C70.9133 10.7504 70.8795 10.9621 70.8203 11.1061C70.7949 11.1738 70.6003 11.1992 70.4819 11.1992C70.3804 11.1992 70.2873 11.1399 70.2535 11.1315C70.2027 11.4109 70.1435 11.6565 70.1182 11.9106C70.1097 12.0122 70.1689 12.1308 70.2197 12.2239C70.2873 12.3425 70.3804 12.4526 70.4565 12.5627C70.3212 12.6474 70.1858 12.732 70.0082 12.8506C69.9743 13.0454 69.9236 13.3503 69.8644 13.689C69.9236 13.7229 70.0166 13.7906 70.1012 13.8499C70.152 13.8414 70.1774 13.8499 70.1943 13.8245C70.7441 13.2402 70.7188 13.4603 71.1671 13.9346C71.294 14.0701 71.404 14.231 71.497 14.3919C71.5816 14.5359 71.6324 14.6968 71.7001 14.8492C71.7339 14.8492 71.7593 14.8323 71.7931 14.8323C71.7508 14.6968 71.7085 14.5613 71.6747 14.4258C71.6493 14.3157 71.5816 14.1378 71.6239 14.104C71.7085 14.0362 71.8523 14.0193 71.9708 14.0277C72.2161 14.0532 72.4276 14.1294 72.5206 14.4088C72.5799 14.5782 73.2059 14.5867 73.4427 14.4427C73.6627 14.3157 73.8742 14.1887 74.111 14.0955C74.424 13.96 74.5678 14.0447 74.5171 14.375C74.4494 14.8831 74.3225 15.3743 74.2125 15.9417C74.3225 15.8824 74.4494 15.8316 74.5594 15.7554C74.644 15.6961 74.7116 15.5945 74.7962 15.5436C74.9231 15.4674 75.0585 15.4166 75.1938 15.3489C75.2277 15.4844 75.2615 15.6199 75.2784 15.7045C75.4645 15.8062 75.7522 15.8655 75.786 16.0009C75.8283 16.1449 75.6253 16.3566 75.5068 16.5853C75.8452 16.6107 76.0652 16.4329 76.2851 16.2719C76.6658 15.9925 77.0718 15.7554 77.2918 15.2896C77.444 14.9762 77.9262 14.9678 78.2646 15.171C78.603 15.3743 78.7891 15.8062 78.6707 16.1195C78.5692 16.382 78.0701 16.6361 77.7655 16.5768C77.6132 16.5429 77.4694 16.4837 77.3172 16.4413C77.0972 16.382 76.9365 16.3905 76.8519 16.67C76.8011 16.8309 76.6066 16.9579 76.4881 17.1019C76.3105 17.3221 76.3612 17.483 76.6404 17.4745C77.0972 17.466 77.5625 17.4237 78.0108 17.339C78.2308 17.2967 78.4676 17.1696 78.383 16.8309C78.3661 16.7716 78.5015 16.6022 78.5692 16.6022C78.7553 16.6022 78.9498 16.653 79.119 16.7377C79.1952 16.7801 79.2882 16.9664 79.2544 17.0341C79.1698 17.1866 79.026 17.3051 78.8399 17.3898C78.8399 17.4576 78.8483 17.5338 78.8399 17.6015C78.7722 17.9911 78.806 18.2621 79.3305 18.1266C79.5082 18.0842 79.652 18.2282 79.5758 18.4484C79.4743 18.7533 79.4743 19.0327 79.7112 19.2868C79.7535 19.3376 79.7366 19.507 79.6773 19.5663C79.4828 19.7949 79.5251 19.9474 79.7112 20.032C79.9734 19.9643 80.1849 19.8542 80.371 19.8796C80.4895 19.8965 80.5825 20.0998 80.6925 20.2184C80.5656 20.2946 80.4472 20.3877 80.3033 20.4301C80.1426 20.4724 79.8888 20.2268 79.8212 20.5825C79.7619 20.9043 79.9142 21.1668 80.2441 21.2177C80.5233 21.26 80.7094 21.5564 81.0393 21.4802C81.0732 21.4717 81.1831 21.7173 81.2677 21.8782C81.42 21.8697 81.6569 21.6157 81.8768 21.9798C81.733 22.0137 81.6315 22.0391 81.5215 22.0561C81.3946 22.0815 81.2254 22.0561 81.1408 22.1153C80.8871 22.3271 80.6925 22.3271 80.5402 22.0137C80.5233 21.9883 80.4979 21.946 80.4725 21.9375C80.168 21.8951 79.855 21.8613 79.542 21.8274C79.6774 22.2 79.9903 22.3863 80.4133 22.3271C80.6163 22.3016 80.794 22.2762 80.9209 22.4795C80.9463 22.5134 80.997 22.5388 81.0393 22.5557C81.4059 22.7307 81.561 23.0017 81.5046 23.3687C81.6146 23.3433 81.733 23.3179 81.8514 23.2925C81.8091 23.4619 81.7668 23.6312 81.7076 23.8429C81.7668 23.9276 81.8768 24.0631 81.9783 24.1986C82.156 24.097 82.3167 23.9784 82.4859 23.9107C82.5197 23.9022 82.6212 24.0631 82.7058 24.1648C82.359 24.368 82.0629 24.5289 81.7076 24.2748C81.623 24.2156 81.4708 24.241 81.3269 24.2748C81.5892 24.4781 81.6061 24.6813 81.4623 24.9269C81.4285 24.9777 81.4454 25.0878 81.4792 25.1471C81.623 25.3927 81.7838 25.6298 81.9445 25.8924C82.2659 25.6129 82.5197 25.6891 82.7312 26.0194C82.6889 25.8331 82.6128 25.6383 82.6128 25.452C82.6212 24.9693 83.0019 24.7406 83.4587 24.9015C83.5687 24.9439 83.721 24.8846 83.8309 24.9269C83.9663 24.9777 84.0763 25.0878 84.2032 25.1725C84.0932 25.2233 83.9748 25.308 83.8648 25.308C83.4503 25.2996 83.1119 25.7907 83.2811 26.1718C83.3995 26.4428 83.5095 26.7138 83.6279 26.9848C83.6618 27.061 83.7125 27.1542 83.7717 27.1796C84.3131 27.4252 84.3977 27.9333 84.5415 28.4245C84.5585 28.4922 84.6008 28.5769 84.66 28.6108C84.6938 28.6277 84.8207 28.5685 84.8292 28.5261C84.8461 28.4584 84.8038 28.3737 84.7615 28.3144C84.5585 28.0434 84.5923 27.9672 84.8968 27.8825C85.066 27.8317 85.2183 27.7301 85.4129 27.6369C85.5059 27.9926 85.6497 28.145 85.9458 27.8402C86.005 27.7809 86.1488 27.7724 86.2504 27.7809C86.4195 27.7809 86.5634 27.8232 86.6649 27.6115C86.7072 27.5353 86.944 27.5099 87.0709 27.5268C87.1555 27.5438 87.2317 27.6877 87.2655 27.7893C87.3247 27.9757 87.3585 28.1704 87.3839 28.3652C87.3839 28.433 87.3501 28.5177 87.2993 28.56C87.257 28.5939 87.1555 28.6023 87.1048 28.5769C86.9017 28.4499 86.7072 28.3059 86.4788 28.1366C86.3434 28.3313 86.2165 28.5176 86.115 28.6701C86.318 28.7124 86.5634 28.6955 86.6226 28.7886C86.8679 29.2121 86.2842 29.1359 86.1996 29.4153C86.4026 29.5508 86.6226 29.6694 86.8002 29.8218C86.9187 29.9235 87.054 30.0844 87.0709 30.2283C87.1132 30.6179 87.2401 31.0329 86.8848 31.3631C86.6818 31.5579 86.5126 31.7866 86.3265 32.0067C86.3688 32.0152 86.4111 32.0322 86.4449 32.0406C86.5295 32.1507 86.6649 32.2523 86.6902 32.3794C86.7072 32.4556 86.5464 32.5657 86.4788 32.6673C86.4111 32.7605 86.3434 32.8536 86.2842 32.9383C86.2419 32.9976 86.1996 33.0992 86.1658 33.0992C85.802 33.0823 85.8358 33.4125 85.6836 33.6327C86.2165 33.8614 85.599 34.0646 85.692 34.3018C86.6395 34.5135 86.005 35.047 85.8781 35.4958C86.0219 35.4958 86.115 35.4874 86.1996 35.4958C86.2757 35.5043 86.3942 35.5212 86.4195 35.5721C86.538 35.8261 86.6141 36.0971 86.7241 36.3512C86.7664 36.4443 86.8425 36.5121 86.9102 36.5883C86.9779 36.656 87.0794 36.7069 87.1386 36.7831C87.3332 37.0456 87.5531 37.0456 87.6715 36.7492C87.8915 36.2241 88.213 36.258 88.5683 36.7153C88.7374 36.927 88.8474 37.1811 88.9405 37.4267C89.135 37.6215 89.3211 37.8247 89.558 38.0703C89.152 38.1973 89.0166 38.5784 88.6021 38.6123C88.3568 38.6377 88.3906 38.9426 88.7036 39.2136C88.7544 39.1374 88.8305 39.0781 88.8559 38.9934C88.9236 38.7309 89.0335 38.57 89.355 38.6462C89.4227 38.6631 89.5919 38.5446 89.6172 38.4599C89.7018 38.155 89.9302 38.1889 90.1079 38.1719C90.1248 38.4514 90.1586 38.697 90.1502 38.9511C90.1502 39.0781 90.1248 39.2305 90.0402 39.3237C89.5326 39.9419 89.6341 40.6194 89.8372 41.3053C90.1925 41.2715 90.3617 41.5509 90.2771 41.9998C90.2094 42.3978 90.1502 42.7958 89.668 42.9059C89.6172 42.7874 89.558 42.5841 89.3296 42.8466C88.9997 43.2193 88.932 43.2108 88.5767 42.7366C88.3314 42.9398 88.0691 43.1261 87.8407 43.3463C87.6969 43.4818 87.6969 43.6766 87.8915 43.8121C88.0945 43.9476 88.1791 43.8375 88.2637 43.6512C88.2975 43.5834 88.4075 43.5241 88.4921 43.5157C88.7374 43.4733 88.9912 43.4479 89.2365 43.414C89.448 43.3802 89.5665 43.4564 89.6511 43.6596C89.6934 43.7697 89.8203 43.9137 89.9218 43.9306C90.294 43.9899 90.2771 44.2101 90.1671 44.4557C90.0317 44.769 89.871 45.0654 89.7103 45.3619C89.6764 45.4296 89.5918 45.4719 89.465 45.582C89.4311 45.3873 89.3804 45.2602 89.3888 45.1417C89.4057 44.8537 89.2788 44.6335 88.9997 44.6505C88.7882 44.6674 88.5852 44.8368 88.7036 45.1417C88.7205 45.184 88.5852 45.3619 88.5175 45.3619C88.4075 45.3619 88.2214 45.2941 88.2045 45.2094C88.1199 44.9215 87.9592 44.8622 87.7223 44.9808C87.6208 45.0316 87.5447 45.1586 87.4601 45.2602C87.5362 45.328 87.6039 45.4042 87.6885 45.4465C87.9084 45.5736 87.9676 45.726 87.7815 45.9377C87.6885 46.0478 87.587 46.1579 87.5193 46.2765C87.4262 46.4289 87.4431 46.5475 87.6715 46.5644C87.993 46.5813 88.1199 46.8608 88.0522 47.208C87.9845 47.5383 88.0099 47.8855 88.0015 48.2243C88.0015 48.4275 88.0184 48.6308 87.993 48.8255C87.9846 48.8848 87.8154 48.9864 87.7646 48.9695C87.6039 48.9018 87.4347 48.8001 87.3162 48.6731C87.2739 48.6308 87.3586 48.3767 87.4347 48.3513C87.8154 48.1989 87.6208 47.9787 87.5785 47.7246C87.367 47.9279 87.1809 48.0718 87.0455 48.2581C86.9948 48.3344 87.0286 48.5037 87.0709 48.6223C87.2063 48.978 87.0455 49.2744 86.6649 49.3421C86.5887 49.8333 86.5126 50.333 86.428 50.858C86.6141 50.9004 86.7748 50.9173 86.9271 50.9766C87.0117 51.0105 87.1555 51.1121 87.1471 51.1544C87.1217 51.2476 87.0371 51.3577 86.9525 51.4085C86.7495 51.527 86.5211 51.6202 86.2842 51.7303C86.6733 52.1283 86.741 52.1029 87.1132 51.8489C87.2909 51.7218 87.4516 51.6541 87.4939 51.3915C87.5277 51.2052 87.79 51.2391 87.9169 51.4254C88.0776 51.6795 88.0015 51.942 87.57 52.1876C87.2909 52.34 87.1217 52.5179 87.0286 52.8058C86.9356 53.0938 86.7579 52.9413 86.5972 52.882C86.1827 52.7127 85.9712 52.8228 85.912 53.2631C86.005 53.2462 86.0896 53.2208 86.1996 53.1954C86.225 53.4325 86.2419 53.6527 86.2673 53.8983C86.1742 53.9067 86.0981 53.8983 86.0473 53.9322C85.9543 53.983 85.8781 54.0592 85.7935 54.1269C85.8781 54.1439 85.9627 54.1608 86.0473 54.1693C86.1065 54.1693 86.1996 54.1439 86.2081 54.1693C86.3603 54.4064 86.5295 54.3556 86.7241 54.237C86.7579 54.2201 86.8425 54.254 86.8764 54.2878C87.0371 54.4826 87.1809 54.6943 87.3586 54.8806C87.5954 55.1347 87.9 55.1686 88.2468 55.1008C88.0776 54.9992 87.8999 54.9145 87.7477 54.7875C87.57 54.6351 87.4347 54.4487 87.2739 54.2878C87.1894 54.2116 87.0455 54.1862 86.9863 54.0931C86.8848 53.9406 86.7241 53.7289 86.7579 53.5849C86.8002 53.4071 86.8848 53.1446 87.2063 53.1615C87.3416 53.1615 87.477 53.0683 87.6885 52.9837C87.7561 53.1446 87.8238 53.3224 87.8999 53.4918C88.0691 53.2885 88.2553 53.0599 88.4414 52.8397C88.4837 52.8736 88.526 52.9074 88.5767 52.9328C88.5175 53.0345 88.4583 53.1361 88.4075 53.2462C88.306 53.4833 88.213 53.695 88.5598 53.8644C88.8897 54.0253 88.9405 54.7113 88.6528 55.0585C88.4667 55.2956 88.2214 55.4819 88.0268 55.7106C87.9676 55.7783 87.9846 55.9223 87.993 56.0324C88.0268 56.278 87.9507 56.3796 87.6969 56.2864C87.4939 56.2102 87.2824 56.1425 87.0625 56.0663C86.9779 56.1679 86.8679 56.2949 86.7748 56.4304C86.5211 56.7861 86.6903 57.2688 87.1555 57.5313C87.3501 57.6414 87.5362 57.76 87.7561 57.904C87.5447 58.031 87.3755 58.1157 87.2317 58.2258C87.1894 58.2512 87.1724 58.3443 87.1894 58.4036C87.1894 58.4375 87.2824 58.4544 87.3332 58.4714C87.4939 58.5137 87.6715 58.5222 87.8154 58.5984C88.0268 58.7085 88.1622 58.717 88.1707 58.4375C88.1876 58.1157 88.3145 57.904 88.6444 57.8023C88.7459 57.7685 88.822 57.6076 88.8643 57.4805C88.8982 57.3789 88.8643 57.2603 88.8643 57.1502C88.8897 57.1502 88.9236 57.1333 88.9489 57.1333C89.0674 57.3366 89.1943 57.5313 89.3381 57.7769C89.3127 57.8786 89.2619 58.0395 89.2027 58.2512C89.3211 58.2258 89.3719 58.2173 89.4311 58.2004C89.8118 58.0987 89.9641 58.2258 89.9641 58.6238C89.9641 58.8525 89.8541 59.115 90.1586 59.2251C90.1079 59.3606 90.074 59.4876 90.0148 59.5977C89.9725 59.6824 89.8964 59.7501 89.8372 59.8179C89.761 59.7501 89.6764 59.6908 89.6172 59.6231C89.5157 59.5045 89.4227 59.386 89.3465 59.2589C89.2873 59.1573 89.2535 59.0303 89.245 58.9117C89.2281 58.7339 89.245 58.5476 89.245 58.4206C88.9828 58.4968 88.7459 58.5391 88.526 58.6323C88.4329 58.6661 88.3737 58.7932 88.3483 58.827C88.1199 58.9202 87.9338 58.9964 87.7392 59.0642C87.6546 59.098 87.5616 59.115 87.4685 59.1489C87.3755 58.7932 86.9525 58.7847 86.7833 58.4968C86.7325 58.4036 86.6141 58.3359 86.5126 58.285C86.4026 58.2258 86.2757 58.2004 86.1065 58.1496C86.1065 58.1496 86.0389 58.2173 86.0558 58.2596C86.1911 58.6577 85.9204 59.0134 85.9289 59.3944C85.9289 59.4791 85.8189 59.64 85.7851 59.64C85.3452 59.5469 85.2352 60.0635 84.8545 60.0719C84.8545 60.1058 84.8461 60.1397 84.8376 60.1736C84.9645 60.2413 85.1083 60.2921 85.2014 60.3937C85.3029 60.4954 85.3706 60.6478 85.4129 60.7833C85.4298 60.8257 85.3114 60.9527 85.2437 60.9612C85.1506 60.9781 84.9899 60.9612 84.9476 60.9019C84.8715 60.7918 84.863 60.6393 84.7869 60.3768C84.6261 60.6055 84.5246 60.7579 84.4316 60.8934C84.4908 60.9696 84.4992 60.995 84.5162 61.0035C85.1252 61.3168 85.1422 61.6217 84.6092 62.0536C84.3808 62.2315 84.2455 62.5702 83.8648 62.35C83.8225 62.5024 83.8309 62.6549 83.7548 62.748C83.6871 62.8412 83.501 62.9428 83.4333 62.909C83.2472 62.8158 83.0273 62.6803 82.9342 62.5109C82.8581 62.367 82.9596 62.0875 82.7058 62.0621C82.4605 62.0367 82.2321 62.1214 82.1306 62.3924C82.1221 62.4262 82.0883 62.4516 82.0714 62.477C81.9022 62.748 81.733 63.019 82.0714 63.3493C82.3421 63.036 82.0883 62.748 82.0714 62.4686C82.2744 62.5024 82.4859 62.5279 82.6889 62.5787C82.7481 62.5956 82.8327 62.7226 82.8243 62.7904C82.7735 63.0783 82.8074 63.3154 83.2472 63.4509C82.9004 63.5356 82.5536 63.4679 82.5959 63.9252C82.4267 63.8574 82.2998 63.8066 82.1729 63.7558C82.0629 63.9167 81.9529 64.0861 81.843 64.247C81.6569 64.5095 81.4961 64.3147 81.31 64.1877C81.2846 64.3147 81.2677 64.4164 81.2423 64.5773C81.1324 64.4757 81.0478 64.4079 80.904 64.2724C80.7855 64.5519 80.684 64.8059 80.5825 65.06C80.5571 65.1108 80.5487 65.204 80.5148 65.2209C79.965 65.4157 80.3033 65.5512 80.5571 65.6782C80.2357 66.127 80.3287 66.3134 80.9294 66.4404C80.9294 66.4319 80.9463 66.4235 80.9463 66.415C81.0224 66.2541 81.0901 66.1016 81.1662 65.9407C81.3269 66.0424 81.4792 66.144 81.6399 66.2541C81.6738 66.2795 81.7076 66.3134 81.733 66.3557C81.8091 66.4743 81.8768 66.6013 81.9445 66.7199C81.843 66.7622 81.7245 66.8638 81.6399 66.8469C81.5215 66.8215 81.42 66.7029 81.3185 66.6182C81.3185 66.5759 81.3016 66.5335 81.2931 66.4912C81.1747 66.5928 81.0224 66.6775 80.9378 66.8045C80.8109 66.9908 80.7348 67.211 80.6248 67.4058C80.5571 67.5244 80.4387 67.7361 80.3795 67.7276C80.2103 67.7022 80.058 67.5752 79.9058 67.482C79.855 67.4482 79.8127 67.3973 79.7112 67.2957C79.8212 67.6006 79.8973 67.8038 79.9565 68.0071C80.0326 68.2781 80.2018 68.3712 80.4725 68.3035C80.7602 68.2357 81.0562 68.1341 81.3439 68.1256C81.9276 68.1087 82.2575 68.7269 81.9614 69.2435C81.9276 69.3028 81.8853 69.3705 81.843 69.4214C81.6823 69.6161 81.6738 69.7516 81.936 69.8956C82.0629 69.9634 82.1729 70.1666 82.1814 70.319C82.1983 70.5392 82.2236 70.6747 82.452 70.7594C82.5282 70.7848 82.562 70.9372 82.6128 71.0304C82.5028 71.0304 82.4013 71.0473 82.2913 71.0304C82.2406 71.0304 82.1898 70.9457 82.1391 70.9457C81.5807 70.8949 81.6146 70.4291 81.4961 70.0565C81.4623 69.9549 81.3692 69.8194 81.2846 69.8109C80.8786 69.7432 80.6502 69.523 80.5148 69.1419C80.481 69.0487 80.3118 69.0064 80.2103 68.9386C80.168 69.0233 80.0919 69.108 80.0749 69.2012C80.0411 69.4044 80.0919 69.7432 79.9903 69.7855C79.7873 69.8871 79.4912 69.8956 79.2628 69.8279C78.9668 69.7432 78.603 69.921 78.3577 69.6161C78.29 69.6839 78.1716 69.7516 78.1631 69.8194C78.1631 69.9295 78.2646 70.048 78.2562 70.1581C78.2562 70.2682 78.1969 70.4207 78.1208 70.463C77.7232 70.6747 77.4779 70.9627 77.4187 71.42C77.3933 71.6147 77.3087 71.8095 77.2326 72.0043C77.1395 72.2499 76.9703 72.3007 76.8096 72.0975C76.522 71.7333 76.2597 71.3438 75.989 70.9711C75.9467 70.9203 75.9213 70.8526 75.786 70.7848C75.7606 70.9457 75.7268 71.1066 75.7183 71.2675C75.7099 71.3861 75.7437 71.5131 75.7183 71.6232C75.7014 71.7333 75.6337 71.8265 75.583 71.9281C75.4984 71.8688 75.4053 71.8011 75.3207 71.7418C75.2953 71.7248 75.27 71.6994 75.2446 71.674C74.7624 72.1313 74.6693 72.1229 74.4325 71.5385C74.3479 71.7248 74.2125 71.9111 74.1872 72.1059C74.1364 72.5717 74.0095 73.029 74.2379 73.5117C74.3733 73.8081 74.0518 74.1977 73.6881 74.3247C73.3074 74.4517 72.8675 74.3162 72.6983 74.0198C72.5545 73.7658 72.6983 73.1984 72.9605 73.0121C73.1044 72.9105 73.2735 72.8342 73.4173 72.7241C73.4935 72.6564 73.5358 72.5463 73.5527 72.4193C73.2143 72.6818 72.7406 72.7834 72.5968 73.2661C72.5799 73.3339 72.4783 73.4186 72.4107 73.4186C71.8946 73.444 71.8016 73.8759 71.6493 74.2146C71.4125 74.7566 71.2263 74.799 70.778 74.3247C70.8457 74.5872 70.888 74.8074 70.9641 75.0107C71.0572 75.2478 71.2517 75.2647 71.4717 75.2055C71.7508 75.1377 72.03 75.0361 72.3092 75.0276C72.9013 75.0107 73.2312 75.6204 72.9436 76.137C72.8929 76.2217 72.8421 76.2979 72.7829 76.3741C72.6644 76.5435 72.6475 76.679 72.8675 76.7637C73.0959 76.8568 73.1805 77.0178 73.1636 77.2718C73.1636 77.3904 73.3158 77.5089 73.4004 77.636C73.4596 77.7291 73.5189 77.8392 73.5696 77.9324C73.4681 77.9324 73.3581 77.9324 73.2566 77.9239C73.2059 77.9154 73.1551 77.8392 73.1043 77.8392C72.546 77.7884 72.5799 77.3226 72.4699 76.95C72.4361 76.8484 72.343 76.7129 72.2584 76.7044C71.8185 76.6367 71.5901 76.3741 71.4717 75.9676C71.4463 75.8914 71.3448 75.8321 71.2856 75.7644C71.2094 75.8491 71.1333 75.9253 71.0572 76.01C71.0402 76.0354 71.0572 76.0777 71.0572 76.1116C71.0402 76.7722 70.8795 76.9077 70.2281 76.7298C69.932 76.6451 69.5767 76.806 69.3314 76.5181C69.2637 76.5943 69.1622 76.6621 69.1538 76.7383C69.1453 76.8314 69.2384 76.9415 69.2468 77.0432C69.2553 77.1363 69.2468 77.3057 69.1961 77.3226C68.5447 77.5682 68.4516 78.161 68.2909 78.72C68.2486 78.8639 68.1471 78.9825 68.071 79.1095C67.9356 79.0248 67.7664 78.9656 67.6734 78.847C67.3857 78.4828 67.1235 78.1017 66.8359 77.6952C66.6751 77.907 66.6667 78.1695 66.802 78.3897C66.9205 78.5845 67.0389 78.7877 66.8274 78.9147C66.6667 79.0164 66.4129 78.9825 66.2014 78.9825C66.083 78.9825 65.9561 78.9486 65.863 78.8893C65.7615 78.83 65.6515 78.7284 65.6008 78.6268C65.5416 78.5252 65.55 78.3897 65.5247 78.2626C65.4739 78.2626 65.4316 78.2542 65.3808 78.2457C65.3132 78.4998 65.2032 78.7454 65.1863 78.9994C65.1609 79.4652 65.0171 79.9225 65.237 80.4052C65.3808 80.727 65.0763 81.0912 64.7041 81.2267C64.3319 81.3537 63.892 81.2267 63.7143 80.9218C63.5705 80.6847 63.6974 80.1173 63.9427 79.9395C64.0443 79.8632 64.1627 79.7955 64.2811 79.7362C64.518 79.6007 64.6956 79.4652 64.4841 79.1434C64.3995 79.0079 64.4503 78.7962 64.4249 78.6183C64.3826 78.3727 64.2219 78.2965 64.0527 78.4828C63.6213 78.9656 63.1475 79.4313 63.1306 80.1512C63.1306 80.2613 63.0122 80.3629 62.953 80.4645C62.8684 80.3968 62.7753 80.3375 62.6907 80.2528C62.53 80.0919 62.3862 79.914 62.217 79.7701C62.1662 79.7362 62.014 79.787 61.9378 79.8378C61.7602 79.9564 61.6079 80.1088 61.4218 80.2613C61.4387 80.3629 61.4557 80.5323 61.4726 80.7016C61.388 80.6593 61.3034 80.6169 61.1765 80.5577C61.1342 80.5831 61.0581 80.6339 60.9735 80.6762C60.652 80.8287 60.3982 80.7355 60.2459 80.3883C60.1614 80.1935 60.0768 79.9903 59.9922 79.7955C59.9668 79.7447 59.916 79.7023 59.8822 79.66C59.3323 79.8717 59.2223 79.8039 59.2223 79.3551C59.0701 79.6346 58.8755 79.9564 58.7063 80.2867C58.5879 80.5322 58.9094 80.9726 59.1885 80.9726C59.51 80.9726 59.7553 81.0489 59.7722 81.4553C60.0683 81.4384 60.3728 81.4892 60.449 81.0658C60.4659 80.9811 60.6689 80.8964 60.7958 80.871C60.8635 80.8625 61.0158 80.9726 61.0242 81.0404C61.0411 81.1674 61.0073 81.3283 60.9396 81.4299C60.6605 81.7856 60.3728 82.1328 60.0598 82.4631C59.9668 82.5563 59.7976 82.5817 59.6622 82.641C59.6284 82.4631 59.5946 82.2853 59.5523 82.0143C59.4169 82.0566 59.2054 82.0905 59.0193 82.1836C58.6133 82.37 58.241 82.2853 57.8942 82.0482C57.5643 81.8195 57.4289 81.4723 57.4797 81.0742C57.4966 80.9726 57.5135 80.8202 57.5812 80.7778C57.8942 80.5831 57.8519 80.2951 57.8519 79.9903C56.2577 79.225 56.4333 81.6832 55.7309 80.871C55.0285 80.0588 55.7309 83.9091 56.2577 83.0879C56.7844 82.2667 55.3797 81.1828 54.1506 81.6832C52.9214 82.1836 52.9214 80.1547 52.9214 80.1547L52.0435 81.0742C51.625 81.3814 51.5813 80.6762 50.9899 80.0485C50.3985 79.4207 51.7569 81.3522 49.4096 80.6762C47.0623 80.0003 50.4398 83.0879 48.2319 81.7772C46.024 80.4664 47.6377 82.9053 48.0695 83.0879C48.9475 83.4592 46.6648 84.299 46.3137 82.641C45.9625 80.983 46.4519 80.8185 45.5859 80.3883C43.6936 79.4483 44.8193 80.7001 44.8243 80.8456C44.3675 80.4899 43.9699 80.7694 43.5639 80.8456C42.8279 80.9811 42.4049 80.6254 42.4303 79.8632C42.4388 79.5753 42.3795 79.4991 42.0665 79.5584C41.7366 79.6176 41.4828 79.7193 41.3136 80.0241C41.1952 80.2443 40.9837 80.2274 40.8822 80.0411C40.6538 79.6261 40.4592 79.6684 40.2224 80.0157C40.1462 80.1173 40.0532 80.2104 39.9517 80.2951C39.8755 80.3629 39.7909 80.4052 39.7063 80.4645C39.6471 80.3714 39.5372 80.2782 39.5372 80.1766C39.5372 79.4821 39.0803 79.0333 38.6743 78.5506C38.6066 78.4744 38.4797 78.4405 38.3782 78.3897C38.3275 78.4913 38.2598 78.5845 38.2259 78.6946C38.1667 78.9063 38.099 79.1265 38.0906 79.3466C38.0906 79.4567 38.2006 79.6346 38.3021 79.6684C38.8435 79.8548 38.9619 80.3544 39.1565 80.7863C39.1988 80.871 39.1226 81.0658 39.0465 81.1505C38.8604 81.3283 38.7504 81.4977 38.7758 81.7772C38.7758 81.8618 38.5982 81.9635 38.5051 82.0566C38.4459 81.9635 38.3444 81.8703 38.3275 81.7687C38.3105 81.6332 38.3528 81.4892 38.3782 81.3283C38.2429 81.2944 38.1244 81.269 38.0145 81.2436C37.49 81.0997 37.3292 80.7186 37.473 80.1935C37.6592 79.533 37.473 78.8978 37.2616 78.2372C36.9486 78.3727 37.2193 79.3043 36.5425 78.7454C36.4072 78.7962 36.2633 78.9063 36.1618 78.8809C35.815 78.7792 35.5358 78.8809 35.2482 79.0587C34.9267 79.2535 34.6053 79.2027 34.3092 78.974C34.0216 78.7454 33.8693 78.449 33.9793 78.0848C34.0808 77.7376 33.8947 77.5343 33.6409 77.4327C33.3364 77.3142 33.3279 77.1617 33.4379 76.9077C33.4802 76.806 33.4463 76.6705 33.4548 76.5435C33.3448 76.5689 33.2433 76.6197 33.1333 76.6282C32.6596 76.6705 32.1774 76.7129 31.7037 76.7214C31.6614 76.7214 31.5853 76.5096 31.5683 76.3995C31.543 76.264 31.5937 76.1031 31.5683 75.9761C31.5514 75.8914 31.4414 75.8237 31.3484 75.7729C31.323 75.7559 31.1961 75.8237 31.1877 75.8745C31.0861 76.4419 30.7224 76.7214 30.2148 76.7298C30.1302 77.0432 30.071 77.3142 29.9864 77.5682C29.961 77.6444 29.8764 77.7207 29.8003 77.763C29.6396 77.8477 29.4788 77.9154 29.3097 77.9662C29.2335 77.9917 29.1405 77.9493 29.0559 77.9408C29.0812 77.8562 29.0897 77.7122 29.1405 77.7037C29.4788 77.6106 29.4958 77.3819 29.4873 77.094C29.4873 76.9923 29.6057 76.8484 29.7073 76.806C30.0118 76.679 29.9441 76.535 29.8088 76.3064C29.7073 76.137 29.6142 75.9084 29.6311 75.722C29.6819 75.1292 29.9103 74.9683 30.5109 75.0361C30.6547 75.053 30.7901 75.0954 30.9254 75.1462C31.5599 75.3494 31.7037 75.2393 31.7291 74.528C31.6106 74.5703 31.5007 74.6465 31.3991 74.6381C31.2807 74.6211 31.1115 74.5618 31.0608 74.4687C30.7224 73.7488 30.6547 73.6642 29.9272 73.2915C29.9357 73.4101 29.9272 73.5117 29.9526 73.6133C30.0372 73.9775 29.8341 74.1808 29.5381 74.3163C29.1997 74.4772 28.8867 74.3671 28.6329 74.1638C28.396 73.969 28.2776 73.6726 28.4214 73.3932C28.6414 72.9613 28.4637 72.5463 28.4214 72.1313C28.413 72.0128 28.2268 71.9111 28.1084 71.7841C27.7785 72.2076 27.5924 71.9111 27.3555 71.5978C27.3217 71.674 27.3217 71.7333 27.2878 71.7587C27.2117 71.8265 27.1271 71.8773 27.051 71.9366C27.0002 71.8349 26.9156 71.7418 26.8987 71.6402C26.8733 71.4792 26.9072 71.3014 26.8987 71.1405C26.8902 71.0219 26.8479 70.9118 26.8141 70.7848C26.5096 71.2167 26.2389 71.6063 25.9512 71.9704C25.8667 72.0805 25.7059 72.1398 25.5875 72.2245C25.5029 72.0975 25.4014 71.9874 25.3422 71.8519C25.1814 71.4877 25.2322 71.0389 24.8769 70.7594C24.8515 70.734 24.8431 70.6832 24.8177 70.6747C24.3947 70.5053 24.2424 70.2343 24.4962 69.8024C24.4032 69.7516 24.2847 69.6415 24.234 69.6669C23.7687 69.8871 23.2781 69.8702 22.7874 69.8617C22.7028 69.8617 22.5928 69.6669 22.5505 69.5399C22.4913 69.3536 22.5252 69.0064 22.4406 68.981C22.1022 68.8709 22.1614 69.2689 22.0091 69.4044C21.8315 69.5653 21.62 69.7008 21.4001 69.794C21.2393 69.8617 21.1547 69.8956 21.1463 70.0989C21.1293 70.607 20.7233 71.0304 20.2326 71.0982C20.1734 71.1066 20.1058 71.0558 20.0465 71.0389C20.0804 70.9542 20.0973 70.8187 20.148 70.8018C20.4526 70.7086 20.4949 70.5053 20.478 70.2174C20.478 70.1158 20.6133 69.9549 20.7233 69.9041C20.994 69.777 20.9602 69.65 20.8333 69.4298C20.7233 69.235 20.6302 68.9895 20.6556 68.7777C20.7148 68.2188 20.8925 68.1002 21.4593 68.1256C21.5777 68.1256 21.6961 68.1595 21.8061 68.1934C22.2883 68.3289 22.559 68.1934 22.762 67.7022C22.8043 67.6091 22.8805 67.5244 23.0073 67.355C22.8805 67.3973 22.8128 67.4058 22.7705 67.4312C22.6098 67.5328 22.4659 67.6768 22.2883 67.7192C22.2291 67.7361 22.1022 67.5074 22.0261 67.3719C21.8992 67.1433 21.7976 66.8892 21.6538 66.6775C21.5354 66.4997 21.3747 66.4319 21.2393 66.7029C21.2055 66.7791 21.0532 66.8384 20.9602 66.8384C20.8756 66.8384 20.7318 66.7453 20.7233 66.686C20.7233 66.5928 20.791 66.4827 20.8502 66.3896C20.8756 66.3472 20.9771 66.3388 20.994 66.2964C21.087 66.0508 21.2647 65.8815 21.5016 65.9661C21.62 66.0085 21.6708 66.2541 21.7892 66.4658C21.9668 66.3557 22.1783 66.2287 22.4998 66.0254C22.3052 65.9153 22.1868 65.8476 22.0768 65.7798C22.1106 65.7629 22.1445 65.7375 22.1868 65.7206C22.1614 65.585 22.1868 65.4072 22.1022 65.3056C21.8907 65.0261 21.6454 64.7721 21.4254 64.5011C21.3747 64.4333 21.3662 64.3317 21.3324 64.2385C20.884 64.4079 20.791 64.3571 20.5033 63.7304C20.3765 63.7812 20.2496 63.832 20.0888 63.8913C20.055 63.5526 19.852 63.4255 19.4798 63.4679C19.8604 63.2985 19.852 63.0275 19.8266 62.7142C19.8266 62.621 20.0465 62.5109 20.1988 62.3839C20.1819 62.35 20.165 62.2823 20.1227 62.2314C20.055 62.1552 19.9789 62.096 19.9027 62.0367C19.835 62.1298 19.7082 62.2315 19.7166 62.3077C19.8012 62.7311 19.3952 62.7142 19.209 62.8835C19.1837 62.9089 18.9468 62.748 18.8368 62.638C18.7861 62.5871 18.803 62.4601 18.7945 62.367C18.3377 62.3924 17.7371 61.9351 17.661 61.4862C17.644 61.3761 17.7371 61.2237 17.8217 61.1305C17.8978 61.0458 18.0247 61.012 18.2024 60.9188C18.1009 60.7494 17.9993 60.5801 17.9063 60.4192C17.8725 60.4361 17.8302 60.453 17.7963 60.47C17.7794 60.5716 17.7963 60.7156 17.7286 60.7664C17.6356 60.8511 17.4833 60.8849 17.3564 60.9357C17.3141 60.8257 17.2211 60.6986 17.2464 60.6224C17.2887 60.5038 17.4156 60.4107 17.5172 60.3175C17.5933 60.2498 17.6863 60.2159 17.7794 60.1143C17.4156 60.0465 17.3226 59.5469 16.8827 59.6231C16.8319 59.6231 16.7389 59.4707 16.705 59.3775C16.6374 59.2081 16.5951 59.0303 16.5612 58.8609C16.5443 58.7762 16.5612 58.6915 16.5612 58.5984C16.5612 58.4205 16.5612 58.2512 16.5612 58.1157C16.3497 58.175 16.2229 58.2088 16.0875 58.2427C16.0621 58.2427 16.0198 58.2427 16.0198 58.2427C15.8845 58.556 15.4869 58.6238 15.3431 58.8948C15.2077 59.1489 15.1062 59.1319 14.9032 59.0303C14.734 58.9456 14.5563 58.8863 14.3787 58.8016C14.0741 58.6492 13.7611 58.5052 13.4058 58.3274C13.4058 58.4375 13.372 58.5645 13.3805 58.6831C13.4058 58.9456 13.4651 59.2081 13.1098 59.3267C13.059 59.3436 13.0675 59.5045 13.0167 59.5808C12.966 59.6654 12.8814 59.7247 12.8052 59.7925C12.7376 59.7247 12.653 59.6654 12.6107 59.5808C12.5514 59.4707 12.5261 59.3436 12.5091 59.3098C12.5768 59.098 12.6699 58.9456 12.6699 58.7932C12.6699 58.1411 12.7291 58.0733 13.4143 58.2088C13.3636 58.0225 13.3213 57.8616 13.2959 57.76C13.4397 57.5144 13.5497 57.3196 13.685 57.0825C13.7189 57.1587 13.7696 57.218 13.7696 57.2773C13.7358 57.5906 13.8457 57.7431 14.1503 57.8616C14.3026 57.9209 14.421 58.1834 14.4548 58.3782C14.5056 58.6915 14.6156 58.7085 14.8524 58.556C14.9709 58.4798 15.1316 58.4714 15.2669 58.4375C15.3261 58.4206 15.3938 58.4036 15.453 58.3867C15.4277 58.3189 15.4277 58.2173 15.3769 58.1834C15.2416 58.0818 15.0808 58.0056 14.8863 57.887C15.0808 57.76 15.2331 57.633 15.4107 57.5398C15.8845 57.2857 16.2736 56.7268 15.7153 56.2526C15.6476 56.1933 15.6138 56.1001 15.5884 56.0409C15.3346 56.1255 15.1062 56.2187 14.8693 56.2864C14.6663 56.3457 14.5902 56.2018 14.6494 56.0409C14.734 55.7868 14.6409 55.7021 14.421 55.5835C13.888 55.2956 13.685 54.5758 13.9388 54.0253C13.9557 53.983 13.9642 53.9152 13.998 53.8983C14.5225 53.6696 14.3195 53.3563 14.0995 53.0429C14.0741 53.0091 14.0826 52.9583 14.0657 52.8143C14.4294 52.9667 14.5902 53.2123 14.7509 53.5002C14.7678 53.441 14.7847 53.3817 14.7847 53.3224C14.8101 53.0091 14.9455 52.9328 15.1993 53.0938C15.3769 53.2038 15.6307 53.0768 15.7745 53.3478C15.9522 53.6866 15.9183 53.9321 15.5715 54.1015C15.5207 54.1269 15.4361 54.1439 15.4192 54.1862C15.2416 54.6689 14.7678 54.8044 14.3871 55.0754C14.844 55.2448 15.1823 55.0331 15.7322 54.3217C16.1213 54.237 16.4005 54.1862 16.6797 54.1269C16.5697 53.966 16.4259 53.8305 16.392 53.6781C16.3497 53.4833 16.409 53.2716 16.4005 53.0768C16.4005 52.9837 16.3413 52.899 16.3159 52.8143C16.2652 52.8143 16.2229 52.7973 16.1975 52.8143C15.8253 53.0345 15.6392 52.9413 15.47 52.5263C15.3769 52.2977 15.0724 52.1453 14.8355 51.9928C14.5902 51.8319 14.6071 51.6371 14.7171 51.4339C14.7594 51.3492 14.8947 51.273 14.9962 51.273C15.0554 51.273 15.1485 51.4 15.1823 51.4847C15.3092 51.8658 15.7914 52.1029 16.1806 51.8743C16.079 51.7303 15.9944 51.5694 15.876 51.4508C15.7576 51.3323 15.6138 51.256 15.4784 51.1544C15.6053 51.0528 15.7322 50.9512 15.8845 50.8241C15.8845 50.6435 15.6645 50.5757 15.2246 50.6209C15.2246 50.4939 15.2331 50.3753 15.2246 50.2483C15.2077 50.1212 15.2077 49.9857 15.1485 49.8841C15.047 49.7063 14.8778 49.5115 15.1062 49.3506C15.2331 49.2574 15.453 49.2913 15.6053 49.2659C15.5884 49.0118 15.6222 48.6731 15.5461 48.3513C15.4869 48.1226 15.3008 47.9279 15.1654 47.7077C14.9116 47.9533 14.9286 48.1057 15.1654 48.3005C15.2585 48.3767 15.3515 48.6392 15.3177 48.6646C15.1823 48.7917 14.9878 48.8679 14.8101 48.9356C14.7847 48.9356 14.6494 48.7493 14.6409 48.6562C14.6409 48.2751 14.6663 47.8855 14.6748 47.5044C14.6748 47.4113 14.6748 47.3181 14.6409 47.2334C14.4802 46.8185 14.5902 46.6067 15.0047 46.5221C15.0639 46.5136 15.1062 46.3696 15.1316 46.2765C15.14 46.2341 15.0724 46.1748 15.0385 46.1325C14.7791 45.7881 14.827 45.5058 15.1823 45.2856C15.157 45.0231 14.9709 44.9045 14.7509 44.913C14.6494 44.913 14.5648 45.0993 14.4548 45.184C14.3533 45.2518 14.2264 45.3449 14.1334 45.3195C14.0572 45.3026 13.9557 45.1163 13.9726 45.0316C14.0234 44.7521 13.8373 44.6166 13.6512 44.6166C13.5243 44.6166 13.3466 44.8114 13.279 44.9638C13.2113 45.1078 13.2451 45.2941 13.2367 45.4635C13.1351 45.4635 13.1013 45.4719 13.0928 45.4635C12.8644 45.0316 12.636 44.6081 12.4246 44.1678C12.4076 44.1254 12.5684 43.9984 12.653 43.9222C12.7629 43.8206 12.9321 43.7528 12.9913 43.6258C13.0844 43.431 13.1944 43.3463 13.4058 43.3802C13.6512 43.4141 13.905 43.431 14.1503 43.4818C14.2433 43.4987 14.3533 43.575 14.3956 43.6512C14.4717 43.8121 14.5817 43.9222 14.7171 43.7951C14.8101 43.7105 14.8863 43.4564 14.8355 43.3886C14.624 43.1346 14.3618 42.9313 14.1164 42.7027C13.6766 43.1685 13.6681 43.1769 13.2959 42.7958C13.0506 42.5502 13.0252 42.7874 12.9744 42.9398C12.3569 42.5672 12.2469 42.0252 12.4584 41.39C12.4838 41.3138 12.6699 41.2884 12.8729 41.2884C12.8983 40.8565 12.949 40.4246 12.949 39.9927C12.949 39.8487 12.8306 39.6963 12.746 39.5523C12.5853 39.2729 12.4161 39.0103 12.5684 38.6462C12.6191 38.5276 12.5091 38.3413 12.4668 38.155C12.7122 38.1381 12.9321 38.1042 13.0336 38.4175C13.059 38.5022 13.2197 38.6293 13.2874 38.6123C13.6343 38.5192 13.7273 38.7309 13.8034 38.9849C13.8204 39.0527 13.8796 39.1035 13.9811 39.2559C14.0741 39.0442 14.1926 38.8833 14.1757 38.7563C14.1587 38.6547 13.9642 38.5869 13.8373 38.5022C13.7442 38.4429 13.6427 38.4091 13.5581 38.3413C13.4397 38.2482 13.3297 38.1465 13.1944 38.028C13.3128 37.8163 13.3382 37.469 13.795 37.4944C13.592 37.0202 13.9726 36.8 14.1926 36.546C14.4802 36.2072 14.7424 36.2665 14.9455 36.656C15.1485 37.0371 15.2669 37.0371 15.5461 36.6899C15.6138 36.6052 15.7576 36.5629 15.7914 36.4782C16.0029 36.1141 16.2229 35.7584 16.409 35.3857C16.4766 35.2502 16.4682 35.0639 16.4851 34.903C16.4936 34.8014 16.4428 34.6744 16.4851 34.5897C16.612 34.2679 16.7981 33.963 16.8742 33.6243C16.9081 33.4718 16.7727 33.2008 16.6374 33.1161C16.502 33.0315 16.3751 33.0061 16.3497 32.8197C16.3413 32.752 16.2398 32.7012 16.189 32.6419C16.1044 32.5403 15.9522 32.4302 15.9606 32.3286C15.9691 32.21 16.1213 32.1168 16.2821 31.9305C16.1298 31.7527 15.9352 31.5325 15.7407 31.3038C15.2585 30.7619 15.4784 29.915 16.189 29.5339C16.2736 29.4916 16.3582 29.4492 16.5105 29.373C16.392 29.2798 16.3159 29.2036 16.2313 29.1697C16.0367 29.0935 15.9014 28.9834 16.0029 28.7632C16.1044 28.5261 16.2821 28.6023 16.4513 28.6955C16.4682 28.6955 16.4936 28.687 16.5697 28.6701C16.4428 28.4753 16.3244 28.2975 16.1806 28.0857C15.9691 28.2382 15.7745 28.3822 15.5715 28.5007C15.5123 28.5346 15.4023 28.5431 15.3515 28.5092C15.3008 28.4753 15.2585 28.3737 15.2669 28.3144C15.2923 28.1281 15.3938 27.9418 15.3684 27.7724C15.3346 27.5438 15.453 27.4675 15.6053 27.4591C15.7491 27.4591 15.8929 27.5438 16.0283 27.603C16.1044 27.6369 16.1806 27.7301 16.2482 27.7216C16.4851 27.6877 16.6966 27.7131 16.8742 27.8994C16.8996 27.9248 17.1196 27.8656 17.1365 27.8063C17.2295 27.5268 17.3564 27.5776 17.5256 27.7216C17.5848 27.7724 17.6694 27.7978 17.7456 27.8148C18.0586 27.891 18.0839 27.9757 17.8809 28.2467C17.8386 28.3059 17.8048 28.3991 17.8217 28.4584C17.8302 28.5007 17.957 28.5685 17.9909 28.5431C18.0501 28.5177 18.0839 28.433 18.1178 28.3652C18.2616 28.018 18.3969 27.6623 18.5407 27.3066C18.5492 27.2728 18.583 27.2389 18.6084 27.2304C19.0906 27.0695 19.1414 26.6207 19.3275 26.2396C19.4882 25.9178 19.4713 25.6637 19.209 25.4435C19.0906 25.3419 18.9045 25.3165 18.7522 25.2487C18.6507 25.2064 18.5492 25.1471 18.4477 25.1048C18.5492 25.0201 18.6338 24.8846 18.7438 24.8507C18.9468 24.7914 19.1752 24.7406 19.3952 24.766C19.5643 24.783 19.8097 24.8592 19.8773 24.9862C19.9873 25.1895 19.9789 25.452 20.0042 25.6891C20.0042 25.7653 19.9281 25.8416 19.8943 25.9093C20.0888 25.8161 20.2834 25.7569 20.4441 25.6383C20.5964 25.5197 20.7064 25.3504 20.8671 25.1641C20.6302 25.037 20.4103 24.9608 20.2496 24.8253C20.0635 24.6644 20.1311 24.4781 20.4526 24.3426C20.2834 24.2664 20.148 24.2071 19.9619 24.1139C20.0381 24.0123 20.1396 23.826 20.1734 23.8345C20.3426 23.8938 20.4864 24.0038 20.681 24.1139C20.774 23.9954 20.884 23.8514 20.9432 23.7837C20.9009 23.5465 20.8671 23.3687 20.8333 23.1909C20.9348 23.2247 21.0363 23.2501 21.1547 23.2925C21.1547 23.2417 21.1378 23.157 21.1209 23.0723C21.0532 22.7844 21.1209 22.598 21.4508 22.5218C21.6369 22.4795 21.7976 22.2932 21.9668 22.1746C22.559 22.3694 22.9989 22.2085 23.1089 21.7342C22.7874 21.7935 22.4744 21.8528 22.1276 21.9121C21.6961 21.9121 21.2562 21.9036 20.8248 21.8951L20.8925 22.0815ZM86.1911 30.6179C85.9712 30.7873 85.7851 30.9143 85.6159 31.0498C85.5567 31.0921 85.5228 31.1683 85.4805 31.2361C85.5482 31.2615 85.6159 31.3123 85.6836 31.3038C86.0389 31.3038 86.4111 31.3208 86.4026 30.7788C86.3265 30.7195 86.225 30.6433 86.1911 30.6094V30.6179ZM16.409 30.7873C16.4259 31.27 16.7389 31.3293 17.1026 31.3038C17.1111 31.3038 17.128 31.3208 17.1365 31.3123C17.2042 31.2869 17.2718 31.253 17.331 31.2276C17.2972 31.1768 17.2718 31.1006 17.2211 31.0667C17.035 30.9228 16.8489 30.7873 16.6204 30.6264C16.5782 30.6602 16.4851 30.7364 16.409 30.7957V30.7873ZM21.3747 24.3595C21.0701 24.2325 20.8502 24.4273 20.6049 24.6051C20.774 24.7576 20.9263 24.8846 21.0786 25.0116C21.1801 24.7914 21.2647 24.5882 21.3747 24.3511V24.3595Z" fill="url(#paint0_angular_2001_231)"/>
<path id="Subtract" fill-rule="evenodd" clip-rule="evenodd" d="M30.686 52.64C38.7529 50.8217 44.778 43.6129 44.778 34.9968C44.778 26.3807 38.7529 19.1719 30.686 17.3536C31.9709 17.064 33.3076 16.9111 34.68 16.9111C44.6686 16.9111 52.7659 25.0084 52.7659 34.9968C52.7659 44.9852 44.6686 53.0825 34.68 53.0825C33.3076 53.0825 31.9709 52.9296 30.686 52.64Z" fill="#FFFCF5"/>
<path id="Subtract_2" fill-rule="evenodd" clip-rule="evenodd" d="M70.3257 70.55C62.2589 68.7318 56.2338 61.5229 56.2338 52.9068C56.2338 44.2908 62.2589 37.0819 70.3257 35.2636C69.0408 34.974 67.7041 34.8212 66.3317 34.8212C56.3431 34.8212 48.2458 42.9184 48.2458 52.9068C48.2458 62.8953 56.3431 70.9925 66.3317 70.9925C67.7041 70.9925 69.0408 70.8397 70.3257 70.55Z" fill="#FFFCF5"/>
<path id="Vector_13" d="M45.6942 42.0901C46.1523 42.3668 50.8079 46.0443 48.9062 44.5351C50.9419 46.1012 52.928 47.7095 54.8646 49.36C56.8012 51.0106 60.9503 54.0936 63.0637 55.6105C63.8037 56.0574 64.653 56.5223 65.6117 57.0052C66.5917 57.4528 67.6003 57.7734 68.6375 57.9671C69.696 58.1255 70.6388 57.9976 71.466 57.5835C71.7346 57.4572 71.8763 57.3023 71.8909 57.1188C71.9269 56.9001 71.8744 56.7482 71.7334 56.663C71.6277 56.5992 71.4794 56.6058 71.2886 56.6829C70.617 56.9986 69.8261 57.074 68.9159 56.909C68.027 56.7087 67.1454 56.4167 66.2711 56.0329C65.3968 55.6491 64.6602 55.2763 64.0612 54.9146C62.2017 53.4548 58.2012 50.2452 56.3498 48.4537C54.4983 46.6622 52.6256 44.906 50.7316 43.185C49.6752 42.3065 46.8023 39.7778 45.7246 38.9346C44.6469 38.0914 43.5267 37.3186 42.3639 36.6163C41.0954 35.8502 39.8016 35.2851 38.4826 34.9212C37.1987 34.5786 35.9208 34.6243 34.6488 35.0583C33.4333 35.4783 32.2656 36.4562 31.1457 37.9919C30.7274 38.6048 30.3902 39.2427 30.1341 39.9056C29.8993 40.5332 29.7529 41.094 29.695 41.588C29.687 41.9198 29.8063 42.1602 30.0529 42.3091C30.4053 42.5219 30.6666 42.4874 30.8368 42.2055C30.922 42.0646 30.9543 41.8917 30.9337 41.6869C30.9703 41.2282 31.0738 40.8578 31.244 40.576C31.4356 40.2588 31.7471 39.9421 32.1787 39.6257C33.3251 38.683 34.502 38.1676 35.7095 38.0793C36.9734 37.9771 38.2154 38.1502 39.4354 38.5985C40.712 39.0329 41.914 39.5906 43.0416 40.2716C43.2882 40.4206 43.5066 40.5765 43.6967 40.7394L44.3838 41.1544L45.6942 42.0901Z" fill="#FFFCF5"/>
</g>
</g>
</g>
<defs>
<radialGradient id="paint0_angular_2001_231" cx="0" cy="0" r="1" gradientUnits="userSpaceOnUse" gradientTransform="translate(51.3292 44.9061) rotate(90) scale(38.7262 38.9693)">
<stop offset="0.33" stop-color="#CE980F"/>
<stop offset="0.82" stop-color="#FFD770"/>
</radialGradient>
</defs>
</svg>
